<svg width="104" height="104" viewBox="0 0 104 104" fill="none" xmlns="http://www.w3.org/2000/svg">
<path d="M104 78C104 81.0647 102.783 84.0039 100.615 86.171C98.4484 88.3381 95.5092 89.5556 92.4444 89.5556H11.5556C8.49083 89.5556 5.55163 88.3381 3.38454 86.171C1.21746 84.0039 0 81.0647 0 78V26C0 22.9353 1.21746 19.9961 3.38454 17.829C5.55163 15.6619 8.49083 14.4445 11.5556 14.4445H92.4444C95.5092 14.4445 98.4484 15.6619 100.615 17.829C102.783 19.9961 104 22.9353 104 26V78Z" fill="#DE2910"/>
<path d="M32.1707 25.9336L34.2969 26.962L35.9985 25.3269L35.6778 27.6669L37.7578 28.782L35.4351 29.198L35.0191 31.5207L33.904 29.4407L31.564 29.7613L33.1991 28.0598L32.1707 25.9336ZM45.6473 34.4298L44.6189 36.5531L46.254 38.2576L43.9169 37.934L42.8018 40.0169L42.3858 37.6913L40.0602 37.2753L42.1431 36.1602L41.8196 33.8231L43.524 35.4582L45.6473 34.4298ZM42.8827 45.3469L43.6569 47.5771L46.0171 47.6262L44.1365 49.0505L44.8211 51.3125L42.8827 49.9633L40.9442 51.3125L41.626 49.0505L39.7453 47.6262L42.1056 47.5771L42.8827 45.3469ZM32.1707 54.8225L34.2969 55.8509L35.9985 54.2158L35.6778 56.5558L37.7578 57.6709L35.4351 58.0869L35.0191 60.4096L33.904 58.3296L31.564 58.6502L33.1991 56.9487L32.1707 54.8225ZM20.2222 31.6362L22.906 39.3525L31.07 39.52L24.5613 44.4542L26.9273 52.2716L20.2222 47.606L13.5171 52.2716L15.8831 44.4542L9.37445 39.52L17.5385 39.3525L20.2222 31.6362Z" fill="#FFDE02"/>
</svg>
