<svg width="104" height="104" viewBox="0 0 104 104" fill="none" xmlns="http://www.w3.org/2000/svg">
<g clip-path="url(#clip0_18_105)">
<path d="M92.4444 14.4445H11.5556C8.49083 14.4445 5.55163 15.6619 3.38454 17.829C1.21746 19.9961 0 22.9353 0 26L0 78C0 81.0647 1.21746 84.0039 3.38454 86.171C5.55163 88.3381 8.49083 89.5556 11.5556 89.5556H92.4444C95.5092 89.5556 98.4484 88.3381 100.615 86.171C102.783 84.0039 104 81.0647 104 78V26C104 22.9353 102.783 19.9961 100.615 17.829C98.4484 15.6619 95.5092 14.4445 92.4444 14.4445Z" fill="#024FA2"/>
<path d="M0 26H104V28.8889H0V26ZM0 75.1111H104V78H0V75.1111Z" fill="#EEEEEE"/>
<path d="M0 28.8889H104V75.1111H0V28.8889Z" fill="#ED1C27"/>
<path d="M38.3587 68.692C42.7857 68.692 47.0313 66.9334 50.1617 63.803C53.292 60.6727 55.0507 56.427 55.0507 52C55.0507 47.573 53.292 43.3273 50.1617 40.197C47.0313 37.0666 42.7857 35.308 38.3587 35.308C33.9317 35.308 29.686 37.0666 26.5556 40.197C23.4253 43.3273 21.6667 47.573 21.6667 52C21.6667 56.427 23.4253 60.6727 26.5556 63.803C29.686 66.9334 33.9317 68.692 38.3587 68.692ZM34.7273 47.0022L38.3587 35.828L41.99 47.0022H53.7391L44.2347 53.9066L47.866 65.0809L38.3616 58.1764L28.8571 65.0809L32.4884 53.9066L22.984 47.0022H34.7273Z" fill="white"/>
</g>
<defs>
<clipPath id="clip0_18_105">
<rect width="104" height="104" fill="white"/>
</clipPath>
</defs>
</svg>
