<svg width="50" height="50" viewBox="0 0 50 50" fill="none" xmlns="http://www.w3.org/2000/svg">
<path fill-rule="evenodd" clip-rule="evenodd" d="M25 50C38.8071 50 50 38.8071 50 25C50 11.1929 38.8071 0 25 0C11.1929 0 0 11.1929 0 25C0 38.8071 11.1929 50 25 50ZM29.9288 12.0002C32.3657 12.4226 34.7051 13.1536 36.8657 14.1609C36.8982 14.1609 36.9145 14.1771 36.9307 14.1934C40.781 19.8631 42.6817 26.2477 41.9669 33.607C41.9669 33.6395 41.9507 33.672 41.9182 33.6883C38.9939 35.8327 36.1834 37.1324 33.3891 37.9934C33.3404 38.0096 33.2917 37.9934 33.2429 37.9771C32.6094 37.0836 32.0245 36.1414 31.5046 35.1504C31.4884 35.1016 31.5046 35.0204 31.5696 35.0042C32.4956 34.6468 33.3891 34.2406 34.2339 33.737C34.3152 33.7045 34.3152 33.607 34.2502 33.5583C34.1608 33.4852 34.0715 33.4162 33.9821 33.3471C33.8928 33.2781 33.8034 33.209 33.7141 33.1359C33.6816 33.1034 33.6328 33.1034 33.6003 33.1197C28.0768 35.6702 22.0496 35.6702 16.4611 33.1197C16.4286 33.1034 16.3799 33.1034 16.3474 33.1359C16.258 33.2009 16.1686 33.27 16.0793 33.339C15.9899 33.408 15.9006 33.4771 15.8113 33.5421C15.7625 33.5908 15.7625 33.6883 15.8275 33.7208C16.6885 34.2081 17.5658 34.6305 18.4918 34.9879C18.5568 35.0042 18.5893 35.0692 18.5568 35.1341C18.0532 36.1251 17.4683 37.0674 16.8185 37.9609C16.8022 37.9934 16.7535 38.0096 16.7048 37.9934C13.9267 37.1324 11.1162 35.8327 8.192 33.6883C8.15951 33.672 8.14326 33.6395 8.14326 33.607C7.54217 27.2387 8.7606 20.8054 13.1794 14.1934C13.1957 14.1771 13.2119 14.1609 13.2282 14.1609C15.4051 13.1536 17.7282 12.4226 20.1651 12.0002C20.2138 12.0002 20.2626 12.0164 20.2788 12.0489C20.5875 12.585 20.9287 13.2674 21.1561 13.8197C23.7408 13.4298 26.3694 13.4298 28.9541 13.8197C29.1815 13.2836 29.5227 12.585 29.8151 12.0489C29.8293 12.033 29.8469 12.0204 29.8665 12.0119C29.8862 12.0035 29.9074 11.9995 29.9288 12.0002ZM16.3311 26.2802C16.3311 28.181 17.7283 29.7243 19.4016 29.7243C21.1074 29.7243 22.472 28.181 22.472 26.2802C22.4883 24.3957 21.1236 22.8361 19.4016 22.8361C17.6958 22.8361 16.3311 24.3795 16.3311 26.2802ZM27.6544 26.2802C27.6544 28.181 29.0515 29.7243 30.7248 29.7243C32.4469 29.7243 33.7953 28.181 33.7953 26.2802C33.8115 24.3957 32.4469 22.8361 30.7248 22.8361C29.019 22.8361 27.6544 24.3795 27.6544 26.2802Z" fill="white"/>
</svg>
