<svg width="104" height="104" viewBox="0 0 104 104" fill="none" xmlns="http://www.w3.org/2000/svg">
<g clip-path="url(#clip0_18_110)">
<path d="M0 40.4445H104V66.4445H0V40.4445Z" fill="#141414"/>
<path d="M92.4444 14.4445H11.5556C8.49083 14.4445 5.55163 15.6619 3.38454 17.829C1.21746 19.9961 0 22.9353 0 26L0 40.4445H104V26C104 22.9353 102.783 19.9961 100.615 17.829C98.4484 15.6619 95.5092 14.4445 92.4444 14.4445Z" fill="#4891D9"/>
<path d="M92.4444 89.5556H11.5556C8.49083 89.5556 5.55163 88.3381 3.38454 86.171C1.21746 84.0039 0 81.0647 0 78V66.4445H104V78C104 81.0647 102.783 84.0039 100.615 86.171C98.4484 88.3381 95.5092 89.5556 92.4444 89.5556Z" fill="#FEFEFE"/>
</g>
<defs>
<clipPath id="clip0_18_110">
<rect width="104" height="104" fill="white"/>
</clipPath>
</defs>
</svg>
