<svg width="78" height="75" viewBox="0 0 78 75" fill="none" xmlns="http://www.w3.org/2000/svg">
<path d="M75.9369 12.1402L39.9393 0.140976C39.3285 -0.046992 38.6752 -0.046992 38.0644 0.140976L2.10433 12.1402H2.02934L1.65436 12.3277H1.61686L1.24189 12.5526C1.24189 12.5901 1.20439 12.5901 1.16689 12.6276L0.866914 12.8901L0.604432 13.1901C0.604432 13.2276 0.566934 13.2276 0.566934 13.2651L0.341949 13.6026C0.341949 13.6401 0.341949 13.6401 0.304451 13.6776L0.154462 14.015L0.0419694 14.4275V14.54C0.00498334 14.6869 -0.00768368 14.8389 0.00447176 14.99V44.988C0.00447176 45.7836 0.320521 46.5466 0.883092 47.1091C1.44566 47.6717 2.20867 47.9878 3.00427 47.9878C3.79987 47.9878 4.56288 47.6717 5.12545 47.1091C5.68802 46.5466 6.00407 45.7836 6.00407 44.988V19.1522L18.6032 23.3519C16.2362 27.1407 14.9883 31.5213 15.0035 35.9886C15.0048 40.0514 16.0377 44.0475 18.0052 47.6021C19.9728 51.1568 22.8106 54.1538 26.2527 56.3122C19.0997 59.0182 12.9931 63.9298 8.81638 70.3363C8.39066 71.0095 8.24643 71.823 8.41476 72.6015C8.58309 73.38 9.05051 74.0613 9.71632 74.4985C10.0431 74.715 10.4095 74.8645 10.7944 74.9383C11.1794 75.0122 11.5751 75.0089 11.9588 74.9286C12.3424 74.8484 12.7064 74.6929 13.0295 74.471C13.3526 74.2491 13.6284 73.9653 13.841 73.636C16.5638 69.442 20.2919 65.9951 24.6861 63.6088C29.0804 61.2225 34.0015 59.9725 39.0019 59.9725C44.0023 59.9725 48.9233 61.2225 53.3176 63.6088C57.7118 65.9951 61.4399 69.442 64.1627 73.636C64.4365 74.0519 64.8096 74.393 65.2482 74.6287C65.6868 74.8643 66.1771 74.9871 66.675 74.986C67.2497 74.992 67.8124 74.8219 68.2874 74.4985C68.9532 74.0613 69.4206 73.38 69.589 72.6015C69.7573 71.823 69.6131 71.0095 69.1873 70.3363C65.0107 63.9298 58.904 59.0182 51.751 56.3122C55.1931 54.1538 58.0309 51.1568 59.9985 47.6021C61.966 44.0475 62.9989 40.0514 63.0003 35.9886C63.0154 31.5213 61.7675 27.1407 59.4005 23.3519L75.9369 17.8398C76.5371 17.6425 77.0596 17.2608 77.4301 16.7491C77.8005 16.2374 78 15.6217 78 14.99C78 14.3582 77.8005 13.7426 77.4301 13.2309C77.0596 12.7191 76.5371 12.3374 75.9369 12.1402ZM39.0019 53.9874C34.2283 53.9874 29.6502 52.0911 26.2748 48.7156C22.8994 45.3402 21.0031 40.7621 21.0031 35.9886C21.0103 32.1478 22.2308 28.4076 24.4903 25.3018L38.0644 29.839C38.6733 30.0393 39.3304 30.0393 39.9393 29.839L53.5134 25.3018C55.7729 28.4076 56.9934 32.1478 57.0007 35.9886C57.0007 40.7621 55.1044 45.3402 51.7289 48.7156C48.3535 52.0911 43.7754 53.9874 39.0019 53.9874Z" fill="#E1E8FF"/>
</svg>
