<svg width="78" height="75" viewBox="0 0 78 75" fill="none" xmlns="http://www.w3.org/2000/svg">
<path d="M78 69.802V58.0111C78 54.7097 77.4429 51.4082 75.2143 48.1068C72.9857 44.8053 70.2 41.9755 66.3 40.089C62.4 37.7308 54.0429 37.2592 50.1429 37.2592L41.2286 45.277L44.5714 51.4082V65.5573L39 70.7453L33.4286 65.5573V51.4082L37.3286 45.277L27.8571 37.2592C23.4 37.2592 15.0429 37.7308 11.1429 40.089C7.24286 41.9755 5.01429 44.8053 2.78571 48.1068C0.557143 51.4082 0 54.238 0 58.0111V69.802C0 69.802 14.4857 74.99 39 74.99C63.5143 74.99 78 69.802 78 69.802ZM39 0C28.4143 0 22.2857 8.48943 23.9571 17.9221C25.6286 27.3548 31.2 33.9577 39 33.9577C46.8 33.9577 52.3714 27.3548 54.0429 17.9221C55.7143 8.0178 49.5857 0 39 0Z" fill="#E1E8FF"/>
</svg>
