<svg width="104" height="104" viewBox="0 0 104 104" fill="none" xmlns="http://www.w3.org/2000/svg">
<path d="M104 77.5556C104 80.6203 102.783 83.5595 100.615 85.7266C98.4484 87.8937 95.5092 89.1111 92.4444 89.1111H11.5556C8.49083 89.1111 5.55163 87.8937 3.38454 85.7266C1.21746 83.5595 0 80.6203 0 77.5556V25.5556C0 22.4908 1.21746 19.5516 3.38454 17.3845C5.55163 15.2175 8.49083 14 11.5556 14H92.4444C95.5092 14 98.4484 15.2175 100.615 17.3845C102.783 19.5516 104 22.4908 104 25.5556V77.5556Z" fill="#00AFCA"/>
<path d="M54.99 55.9809C59.5611 55.9809 63.2667 52.2753 63.2667 47.7042C63.2667 43.1331 59.5611 39.4276 54.99 39.4276C50.4189 39.4276 46.7133 43.1331 46.7133 47.7042C46.7133 52.2753 50.4189 55.9809 54.99 55.9809Z" fill="#FFCC4D"/>
<path d="M54.9958 38.8035C55.4869 38.7978 55.666 38.4887 55.666 38.1218C55.666 37.6307 54.9958 33.8 54.9958 33.8C54.9958 33.8 54.314 37.6307 54.314 38.1218C54.314 38.4887 54.4989 38.8035 54.9958 38.8035ZM54.9958 56.6511C54.4989 56.654 54.314 56.9631 54.314 57.33C54.314 57.824 54.9958 61.6027 54.9958 61.6027C54.9958 61.6027 55.666 57.8211 55.666 57.33C55.6689 56.966 55.4869 56.6511 54.9958 56.6511ZM52.6818 56.3015C52.2051 56.1802 51.9538 56.4315 51.8584 56.7869C51.7313 57.2607 51.3876 61.1375 51.3876 61.1375C51.3876 61.1375 53.0371 57.6102 53.1642 57.1364C53.2624 56.7811 53.1613 56.4287 52.6818 56.3015ZM57.304 39.0607C57.7836 39.1878 58.0436 38.9335 58.1389 38.5811C58.266 38.1044 58.5838 34.2767 58.5838 34.2767C58.5838 34.2767 56.9602 37.752 56.8302 38.2315C56.7349 38.584 56.8273 38.9335 57.304 39.0607ZM50.5353 55.406C50.1049 55.1662 49.7958 55.3424 49.6138 55.6631C49.3682 56.0878 48.0336 59.7422 48.0336 59.7422C48.0336 59.7422 50.5382 56.7638 50.7838 56.3391C50.9687 56.0184 50.9658 55.6544 50.5353 55.406ZM59.4591 39.9475C59.8896 40.196 60.2073 40.0169 60.3893 39.6991C60.6378 39.2715 61.9349 35.6604 61.9349 35.6604C61.9349 35.6604 59.462 38.5984 59.2136 39.0231C59.0344 39.3409 59.0344 39.702 59.4591 39.9475ZM48.6922 53.9933C48.3398 53.6495 47.996 53.7391 47.736 53.9991C47.3893 54.3487 45.1533 57.5322 45.1533 57.5322C45.1533 57.5322 48.3456 55.302 48.6922 54.9582C48.9522 54.6982 49.0447 54.34 48.6922 53.9933ZM61.3138 41.3689C61.6662 41.7184 62.0158 41.6289 62.2758 41.3689C62.6253 41.0222 64.8151 37.8647 64.8151 37.8647C64.8151 37.8647 61.6691 40.066 61.3224 40.4155C61.0624 40.6755 60.9671 41.0222 61.3138 41.3689ZM47.2824 52.1473C47.0311 51.7255 46.6758 51.7255 46.3551 51.9075C45.9276 52.1531 42.9462 54.6491 42.9462 54.6491C42.9462 54.6491 46.6064 53.326 47.0311 53.0804C47.3518 52.8955 47.5309 52.5778 47.2824 52.1473ZM62.738 43.2235C62.9893 43.654 63.3533 43.6569 63.6682 43.4749C64.0958 43.2264 67.028 40.7478 67.028 40.7478C67.028 40.7478 63.4198 42.0564 62.9922 42.302C62.6744 42.4869 62.4953 42.796 62.738 43.2235ZM46.3956 50.0009C46.2627 49.5271 45.916 49.4347 45.5607 49.5271C45.0869 49.6542 41.5596 51.2951 41.5596 51.2951C41.5596 51.2951 45.4364 50.9629 45.9102 50.8358C46.2656 50.7375 46.5227 50.4804 46.3956 50.0009ZM63.6307 45.3787C63.7636 45.8582 64.1102 45.9564 64.4656 45.8611C64.9422 45.734 68.4176 44.0989 68.4176 44.0989C68.4176 44.0989 64.5927 44.4282 64.1131 44.5553C63.7607 44.6478 63.5036 44.9049 63.6307 45.3787ZM46.0922 47.6984C46.0864 47.2073 45.7773 47.0282 45.4104 47.0282C44.9193 47.0282 41.0887 47.6984 41.0887 47.6984C41.0887 47.6984 44.9193 48.3802 45.4104 48.3802C45.7773 48.3802 46.0922 48.1953 46.0922 47.6984ZM63.9398 47.6984C63.9427 48.1953 64.2518 48.3802 64.6187 48.3802C65.1127 48.3802 68.8913 47.6984 68.8913 47.6984C68.8913 47.6984 65.1098 47.0282 64.6187 47.0282C64.2518 47.0253 63.9398 47.2073 63.9398 47.6984ZM46.3956 45.396C46.5169 44.9193 46.2656 44.668 45.9102 44.5727C45.4364 44.4455 41.5596 44.1018 41.5596 44.1018C41.5596 44.1018 45.0869 45.7513 45.5607 45.8784C45.916 45.9738 46.2684 45.8755 46.3956 45.396ZM63.6336 50.0153C63.5064 50.4949 63.7607 50.7549 64.1131 50.8502C64.5898 50.9773 68.4176 51.2951 68.4176 51.2951C68.4176 51.2951 64.9422 49.6687 64.4627 49.5415C64.1102 49.4491 63.7607 49.5387 63.6336 50.0153ZM47.2853 43.2495C47.5251 42.822 47.3489 42.51 47.0282 42.328C46.6036 42.0824 42.9491 40.7478 42.9491 40.7478C42.9491 40.7478 45.9276 43.2524 46.3522 43.498C46.6729 43.6829 47.0369 43.6771 47.2853 43.2495ZM62.7438 52.1733C62.4953 52.6038 62.6744 52.9215 62.9922 53.1035C63.4169 53.352 67.0309 54.6491 67.0309 54.6491C67.0309 54.6491 64.0929 52.1791 63.6682 51.9307C63.3504 51.7487 62.9893 51.7487 62.7438 52.1733ZM48.698 41.4064C49.0418 41.054 48.9522 40.7102 48.6922 40.4502C48.3427 40.1035 45.1591 37.8675 45.1591 37.8675C45.1591 37.8675 47.3893 41.0598 47.7331 41.4064C47.9931 41.6664 48.3484 41.7589 48.698 41.4064ZM61.3224 54.028C60.9729 54.3804 61.0624 54.7329 61.3224 54.99C61.6691 55.3395 64.8267 57.5293 64.8267 57.5293C64.8267 57.5293 62.6253 54.3833 62.2758 54.0338C62.0158 53.7738 61.6691 53.6784 61.3224 54.028ZM50.5469 39.9938C50.9658 39.7424 50.9687 39.3871 50.7867 39.0664C50.5411 38.6418 48.0451 35.6575 48.0451 35.6575C48.0451 35.6575 49.3682 39.3178 49.6138 39.7424C49.7958 40.0631 50.1164 40.2422 50.5469 39.9938ZM59.4707 55.4522C59.0431 55.7007 59.0373 56.0618 59.2193 56.3795C59.4678 56.8071 61.9464 59.7393 61.9464 59.7393C61.9464 59.7393 60.6378 56.1282 60.3922 55.7007C60.2073 55.3858 59.8953 55.2038 59.4707 55.4522ZM52.6904 39.1069C53.1642 38.974 53.2567 38.6273 53.1642 38.272C53.0371 37.7982 51.3962 34.2709 51.3962 34.2709C51.3962 34.2709 51.7284 38.1478 51.8556 38.6215C51.9509 38.9769 52.2109 39.234 52.6904 39.1069ZM57.3127 56.3449C56.8331 56.4778 56.7349 56.8244 56.8302 57.1798C56.9573 57.6564 58.5924 61.1318 58.5924 61.1318C58.5924 61.1318 58.2631 57.304 58.136 56.8302C58.0436 56.4749 57.7864 56.2178 57.3127 56.3449Z" fill="#FFCC4D"/>
<path d="M63.1107 68.3078L63.0038 68.354L62.8853 68.3713L62.7958 68.3887L62.6311 68.354L62.5589 68.3251L62.4924 68.2933L62.4144 68.2442L62.2844 68.1518L62.166 68.0564L62.0996 68.0102L62.0158 67.9756L61.958 67.9611H61.8742L61.5478 68.64L61.4813 68.7353L61.4178 68.8133L61.3513 68.8624L61.2936 68.9116L61.2098 68.9433H61.1318L61.0596 68.9116L60.9584 68.8624L60.9296 68.8133L60.8949 68.7642L60.8602 68.7007L60.8256 68.6255L60.7793 68.3858L60.684 68.4638L60.5944 68.5764L60.4153 68.848L60.3084 68.9896L60.1958 69.0993L60.1351 69.1658L60.0571 69.2149L59.9791 69.2496L59.8838 69.2784H59.8376L59.7538 69.2958L59.6758 69.2784L59.6151 69.2496L59.4302 69.0271L59.2222 68.8047L59.0807 69.0271L58.916 69.2149L58.838 69.2929L58.7658 69.3709L58.6878 69.4344L58.5404 69.5153L58.4624 69.5327H58.3844L58.318 69.5153L58.2544 69.4807L58.2082 69.4316L58.1476 69.3564C58.1072 69.2388 58.0639 69.1223 58.0176 69.0069L58.0002 68.926L57.9713 68.8653L57.9367 68.8335H57.902L57.4744 69.5327L57.4138 69.5933L57.3011 69.6424L57.0527 69.7031H56.9053L56.7927 69.6713L56.758 69.654L56.7118 69.6049L56.7002 69.576V69.5124L56.758 68.8133L56.7118 68.8307L56.5876 68.8913C56.4738 69.0099 56.363 69.1313 56.2553 69.2553L56.1138 69.4316L55.9376 69.5789L55.7729 69.7031L55.6804 69.7551L55.4898 69.784L55.4118 69.7667L55.3771 69.7551L55.3453 69.7204L55.328 69.6713V69.6222L55.3453 69.42L55.3944 69.0993L55.3627 68.9116L55.2962 68.8018L55.2009 68.9433L55.0449 69.1484C54.915 69.2899 54.782 69.4286 54.6462 69.5644C54.5702 69.6148 54.4961 69.6678 54.4238 69.7233L54.2504 69.784L54.2158 69.7667H54.1667L54.132 69.7378L54.1204 69.7204L54.0858 69.6713L54.0742 69.6222V69.5616L54.0569 69.4807L54.0742 68.8798C53.7853 69.0762 53.4936 69.2669 53.1989 69.4489L53.0891 69.498L52.9649 69.5616C52.8464 69.5904 52.7309 69.6193 52.6153 69.654H52.4998L52.3929 69.6396L52.2947 69.6049L52.3438 69.4778L52.4391 69.2553L52.4998 69.1629L52.5691 69.0676L52.6298 68.9722L52.7916 68.8133L52.9678 68.6891L53.17 68.5591L53.378 68.4638L53.6178 68.3858L53.8547 68.3251L54.3949 68.2298L54.6636 68.1951C55.4609 68.1489 56.2611 68.1431 57.0584 68.1489L57.9338 68.0998L58.2053 68.068L58.708 67.9727L58.9507 67.9062L59.176 67.8138L59.384 67.7184C59.4938 67.6318 59.6064 67.5451 59.722 67.4642L59.8751 67.2851L59.7104 66.9702L59.8404 66.9529L59.9647 66.924L60.0947 66.8604L60.2016 66.7795L60.2478 66.7507L60.2998 66.7016L60.3344 66.638L60.3691 66.5918L60.3807 66.5282V66.4184L60.346 66.3549L60.6176 66.3058L60.9064 66.274L61.2098 66.2567H61.5247C61.9667 66.274 62.4058 66.3 62.8449 66.3347C63.5093 66.4155 64.1767 66.4791 64.844 66.5427L65.442 66.5744V66.794L65.4304 66.8922L65.3958 66.9847L65.3669 67.08L65.3322 67.158L65.286 67.2215C65.2311 67.2851 65.1704 67.3487 65.1098 67.4093L64.9682 67.5018L64.8151 67.5653L64.662 67.6L64.4858 67.6318L64.1478 67.6L63.9716 67.5509L63.8184 67.47L63.6538 67.392L63.5296 67.2793L63.4053 67.1551V67.4267C63.3822 67.6029 63.3533 67.7762 63.3273 67.9524L63.2667 68.1171L63.232 68.1835L63.1858 68.2298L63.1511 68.2789L63.1107 68.3078ZM50.3476 66.8142L50.7087 66.9731C50.7808 66.9128 50.855 66.855 50.9311 66.7998L51.0727 66.7247L51.1998 66.6438L51.6764 66.4531L52.0867 66.2624L52.2947 66.1844L52.6471 65.9967L52.7887 65.8984C53.1469 65.6644 53.508 65.4333 53.8691 65.2051L54.184 64.9827L54.4238 64.792C54.6607 64.5782 54.8918 64.3615 55.1229 64.142L55.2182 64.0784L55.328 64.0149C55.4595 63.9484 55.5924 63.8849 55.7267 63.8242L55.9953 63.7318C56.5327 63.5844 57.0787 63.4689 57.6276 63.3822C58.188 63.3158 58.7484 63.2407 59.3089 63.1771L60.0542 63.05C60.2391 62.998 60.424 62.9518 60.6118 62.9084L60.8024 62.6687L61.1087 62.3364L61.3167 62.1313L61.5478 61.9378L61.8193 61.7327L62.1342 61.5247L62.6138 61.2415C62.9576 61.0682 63.2984 60.8949 63.6393 60.7158C64.246 60.4327 64.844 60.1322 65.4391 59.826L65.7222 59.6353L65.8002 59.3955L65.9129 59.1616L66.0544 58.9218L66.4213 58.4307C66.5889 58.2515 66.7507 58.0724 66.9124 57.8876C67.1089 57.6969 67.3111 57.512 67.5162 57.3329L67.8224 57.0816L67.9756 56.9689L68.1402 56.8591C68.2558 56.7927 68.3713 56.7291 68.4898 56.6684L68.666 56.5875L68.8364 56.5269L69.2091 56.4287L69.394 56.4171L69.5702 56.3998L69.7551 56.4171L69.9313 56.446L69.9198 56.6367L69.8736 56.8244L69.732 57.2231L69.6136 57.4282L69.472 57.6362L69.2987 57.8558L69.0907 58.0782L69.2553 58.0609L69.3969 58.0291L69.5096 57.9944L69.6164 57.9482L69.8244 57.8847L70.122 57.8529L70.1393 57.9656V58.0753L70.122 58.1851L70.0931 58.2804L70.0469 58.3758L69.9804 58.4711L69.9198 58.5462L69.8418 58.6271C69.6235 58.8377 69.401 59.0438 69.1744 59.2453L69.3622 59.2627C69.5009 59.306 69.6396 59.3493 69.7811 59.3869L69.9342 59.4216L69.7493 59.566C69.6028 59.664 69.4545 59.7594 69.3044 59.852L68.796 60.138L68.5418 60.2969L68.2876 60.4731L68.0507 60.6638L68.1576 60.6782L68.3049 60.7418L68.3684 60.7591L68.4291 60.7909L68.4811 60.8053L68.5273 60.7909L68.2124 60.9671C68.0156 61.0595 67.8201 61.1549 67.626 61.2531L67.3833 61.3976L67.3371 61.4467L67.3082 61.4958L67.2736 61.542L67.2851 61.6056L67.3198 61.6547L67.3804 61.7009L67.4382 61.7529L67.4151 61.8135L67.3804 61.8656L67.3198 61.9118L67.262 61.9609L67.1089 62.036L66.924 62.1169L66.5629 62.244L66.3376 62.3567L66.6524 62.6716L66.5398 62.7813L66.4329 62.8622L66.3376 62.9113L66.2249 62.9575L66.0053 62.9893H65.6933L65.728 63.1338L65.7742 63.2753L65.8407 63.596C65.6437 63.7491 65.4424 63.8965 65.2369 64.038L64.87 64.2749L64.4627 64.5118L64.22 64.6244L63.9831 64.7342C63.7156 64.8381 63.4449 64.9335 63.1713 65.0202L62.556 65.1502L62.218 65.1993C62.5849 65.2109 62.9518 65.2167 63.3187 65.2138L64.22 65.1184L64.6158 65.0404L64.9653 64.9451C65.1964 64.8671 65.4218 64.7804 65.6471 64.6909L66.0862 64.4887L66.5196 64.2489L66.9269 63.9918L67.3602 63.7404L67.1002 63.6133L66.8518 63.5353L66.7333 63.4804C66.6438 63.4371 66.5542 63.3938 66.4618 63.3562L66.3144 63.2753L66.4387 63.1829L66.5918 63.1193L66.7564 63.0587C66.9471 63.0124 67.1407 62.9691 67.3313 62.9287C67.5798 62.9027 67.8282 62.8709 68.0767 62.8362L68.3916 62.8044L68.6342 62.7438L68.6978 62.7091L68.744 62.66L68.7324 62.6427L68.6978 62.6109L68.6516 62.5935L68.5909 62.5647L68.4147 62.53L68.1893 62.4982L67.9698 62.4809L67.7502 62.4491L67.5538 62.4L67.4353 62.3509L68.9867 62.0042L69.2582 61.9233C69.3767 61.88 69.4922 61.8309 69.6078 61.7818L69.7609 61.6835L69.8273 61.6229L69.81 61.6084L69.7811 61.5738L69.6338 61.542L69.4316 61.5247H69.1889C69.0242 61.5131 68.8624 61.5016 68.6978 61.4958L68.4956 61.4611L68.3656 61.4293L68.5909 61.3369C68.926 61.2329 69.2669 61.1376 69.6078 61.048C69.8013 60.9816 69.9978 60.9151 70.1942 60.8573L70.4947 60.7302L70.6362 60.6522L70.7662 60.5742L70.8124 60.5251L70.8616 60.4616L70.9078 60.4153L70.9251 60.3662L70.9078 60.3171L70.8616 60.2824L70.8124 60.2709H70.3733L70.1653 60.2824H69.8822L69.7984 60.2709L69.7436 60.2362L69.6742 60.2044C70.252 59.8231 70.8356 59.4447 71.422 59.0749L71.8784 58.7571C72.0015 58.6552 72.1219 58.5502 72.2396 58.4422L72.3811 58.2833L72.5111 58.1244L72.6064 57.9511L72.6844 57.7778L72.7307 57.5842V57.3791H72.6238L72.5111 57.3964L72.2627 57.4889C72.0426 57.6273 71.8191 57.7602 71.5924 57.8876L71.4682 57.9684L71.3209 58.0291L71.1793 58.0782L71.0493 58.11L70.9251 58.1273H70.7778L70.6536 58.0782L71.0378 57.7922C71.3469 57.5293 71.6531 57.2635 71.9564 56.9978C72.2918 56.6774 72.6193 56.3489 72.9387 56.0127L73.3951 55.5042C73.5309 55.3251 73.6696 55.1518 73.8111 54.9784C73.9238 54.8167 74.0364 54.652 74.1433 54.4873L74.178 54.4267L74.1896 54.3776L74.178 54.3111L74.1607 54.2649L74.1433 54.2129L74.0971 54.1811L74.048 54.132L74.0018 54.1147L73.9411 54.0858L73.8718 54.0684H73.7476L73.6869 54.0858L73.6031 54.0973L73.5569 54.1493L73.4904 54.1984C73.1669 54.522 72.8462 54.8513 72.5313 55.1835L72.1471 55.5476C71.8948 55.7674 71.6406 55.9851 71.3844 56.2004C71.2639 56.2821 71.1416 56.3611 71.0176 56.4373L70.668 56.6136L70.7749 56.5182C70.8904 56.4084 71.0031 56.2987 71.1129 56.186C71.5202 55.718 71.9102 55.2327 72.2858 54.7415L73.0196 53.7102L73.216 53.3636L73.4124 53.0458L73.5713 52.7569L73.6956 52.4853L73.7736 52.2658L73.7909 52.1878V52.0607L73.7736 52.0115L73.7158 51.9162L73.6811 51.8844L73.6291 51.87L73.5396 51.818L73.4211 51.7862H73.2044L73.1438 51.8035L73.0976 51.818L73.0311 51.8527L72.9849 51.8989L72.8549 52.0115C72.7124 52.183 72.5747 52.3583 72.4418 52.5373C72.124 53.0342 71.7889 53.5196 71.4422 53.9962L71.0407 54.4729L70.8384 54.6809L70.6189 54.8715L70.902 54.3429L71.3469 53.4098L71.6358 52.728L71.76 52.3784L71.9796 51.662C72.0344 51.4309 72.0836 51.1998 72.1269 50.9658C72.1471 50.7491 72.1644 50.5324 72.1789 50.3129L72.1558 50.154L72.1442 50.0124L72.1269 49.8651L72.0807 49.6802L72.046 49.6282L71.968 49.5502L71.8611 49.504L71.7427 49.4693H71.6358L71.5347 49.4867L71.5058 49.504L71.4596 49.5155L71.4422 49.5502C71.1562 50.4516 70.9396 51.3702 70.6911 52.2802C70.5987 52.5344 70.5062 52.7887 70.408 53.0429L70.1711 53.5022L70.0238 53.7073L70.1191 53.2509C70.1653 52.9851 70.2058 52.7222 70.2433 52.4564L70.3098 51.8035L70.3271 51.532C70.3184 51.3941 70.3069 51.2563 70.2924 51.1189L70.2636 50.96L70.2173 50.8329L70.1509 50.7375L70.1162 50.7058L70.0209 50.674L69.9747 50.6567H69.9227L69.8764 50.674L69.7464 50.7058L69.6222 50.7693C69.524 51.2604 69.4056 51.7487 69.2727 52.2311C69.0835 52.8396 68.8617 53.4376 68.6082 54.0222C68.437 54.3815 68.2559 54.736 68.0651 55.0853L67.7156 55.6891L67.3371 56.2582C67.0833 56.6135 66.8203 56.9622 66.5484 57.304C66.2827 57.6044 66.0111 57.8991 65.7367 58.1938C65.4507 58.474 65.1589 58.7513 64.8613 59.0229C64.5551 59.2771 64.246 59.5227 63.9311 59.7653C63.5471 60.043 63.154 60.308 62.7524 60.5598L62.0533 60.97L60.9411 61.4813L59.7971 61.8915L58.8496 62.1804L57.8673 62.4L57.3762 62.4809L56.3709 62.608L55.8624 62.6398L55.8133 62.6571L55.7642 62.6716L55.6689 62.7235L55.562 62.7987C55.4376 62.9071 55.3153 63.0178 55.1951 63.1309L54.9409 63.388L54.0193 64.4164L53.6698 64.766L53.2596 65.0809L53.0978 65.1907L52.9389 65.2889L52.5922 65.4478C52.0549 65.6673 51.5089 65.8667 50.9687 66.0833L50.8271 66.1613L50.7 66.2278L50.6076 66.2884L50.4313 66.4647L50.3822 66.5427L50.3476 66.6207L50.336 66.7333V66.8142" fill="#FFCC4D"/>
<path d="M56.1629 67.5278L56.4287 67.5624L56.5587 67.6115L56.5876 67.626V67.6433H56.5587L56.524 67.6578L56.2698 67.7069H56.0676L55.4031 67.6578L53.7189 67.626C53.274 67.6318 52.8291 67.6433 52.3842 67.6578C51.9913 67.6867 51.6013 67.7184 51.2084 67.7531L50.9051 67.8022L50.6364 67.8629C50.5729 67.886 50.5122 67.9091 50.4487 67.9264L50.3678 67.9611L50.3042 68.0102L50.3331 67.8484L50.4024 67.6867L50.18 67.7502L49.9893 67.8455L49.9142 67.8947L49.8478 67.9582L49.7987 68.0333L49.7871 68.1142L49.7409 68.0044L49.7062 67.9062C49.6977 67.8374 49.6862 67.7689 49.6716 67.7011C49.6889 67.6173 49.7062 67.5335 49.7178 67.4498L49.7698 67.3689L49.7987 67.3053L49.8651 67.2302L49.9922 67.1031L50.1656 66.9904L50.362 66.8807C50.4655 66.9412 50.5761 66.9888 50.6913 67.0222C50.805 67.0324 50.9196 67.0217 51.0293 66.9904C51.2056 67.1464 51.662 67.1147 51.7256 66.8315C51.7502 66.727 51.7502 66.6183 51.7256 66.5138L51.9162 66.4993L52.1387 66.4647L52.6298 66.3375L52.8869 66.2884L53.1238 66.2278L53.3462 66.196L53.534 66.1787L53.456 66.2451L53.0429 66.56L52.8869 66.6698L53.0891 66.7218L53.2653 66.7535L52.8898 67.1811L52.7916 67.3082L52.9158 67.3573L53.0429 67.392L53.1873 67.4238H53.4733L53.7564 67.3602L53.8691 67.2938L53.9991 67.3602L54.1262 67.4093C54.2071 67.4324 54.2909 67.4555 54.3747 67.4729C54.5711 67.4931 54.7676 67.5162 54.9669 67.5335H56.1629M54.7156 62.7033L54.574 62.9893L54.4122 63.3562C54.3291 63.5057 54.251 63.6579 54.1782 63.8127L54.0973 63.8935L53.9096 63.7347L53.7016 63.5902L53.4791 63.4775L53.2451 63.3851L52.7338 63.2551L52.4824 63.2089C52.2076 63.177 51.9322 63.151 51.6562 63.1309C51.2908 63.1251 50.9257 63.1078 50.5613 63.0789L50.0529 63.0182L49.7669 62.9691L49.4982 62.9084L49.2151 62.8102L48.9753 62.686L48.7991 62.5704L48.4351 62.3018C47.9036 61.802 47.3778 61.2964 46.8318 60.8082L46.5169 60.5887L46.3724 60.5251L46.2222 60.4789L45.9536 60.4182C45.7967 60.3622 45.6387 60.3092 45.4798 60.2593C45.3319 60.188 45.1826 60.1196 45.032 60.0542C44.77 59.8919 44.5164 59.7164 44.2722 59.5284L44.1133 59.3811L43.7984 59.0662L43.4951 58.734C42.9953 58.1244 42.5244 57.4947 42.0362 56.8764C41.8028 56.6285 41.5649 56.3849 41.3227 56.1455L41.1176 55.9578L40.9096 55.7844L40.4531 55.4522L40.4069 55.4667L40.3549 55.5158L40.3058 55.5793C40.2769 55.6515 40.2538 55.7267 40.2307 55.8018L40.2133 55.8653L40.0978 55.8133L40.0024 55.7642L39.8869 55.7151L39.7916 55.6833H39.5864L39.4738 55.7151L39.364 55.7642C39.4507 55.874 39.5344 55.9838 39.6153 56.0964L39.7569 56.3189L40.014 56.81L40.1064 57.0498L40.1411 57.1769L40.1758 57.2722L40.1902 57.382V57.4744H39.3351L39.4593 57.6651C39.5547 57.7951 39.6558 57.9222 39.7569 58.0464L40.2827 58.5722L40.4589 58.7138L40.6207 58.8264C40.4832 58.8409 40.3455 58.8524 40.2076 58.8611L39.7916 58.9073L39.9331 59.0373C40.0573 59.124 40.1787 59.2135 40.3 59.306L40.5051 59.4475L40.7131 59.5747L40.9182 59.6873L41.1089 59.7509L41.2851 59.7971L41.4267 59.8289L41.4729 59.8462L41.5076 59.8809L41.5191 59.8953V59.956L41.4729 60.086L41.4613 60.1784L41.4411 60.242V60.2882L41.4613 60.3691L41.4729 60.4327L41.5076 60.4615L41.5538 60.4962L41.6144 60.528L41.6953 60.5453L41.8571 60.6089L41.9351 60.6378L41.9987 60.6869L42.0131 60.7042V60.736L41.9987 60.7533L41.8716 60.8458L41.808 60.9093L41.7444 60.9873V61.0538L41.73 61.1173L41.7618 61.2878L42.3164 61.4784L42.4436 61.5073L42.5707 61.5593L42.666 61.6084L42.7469 61.6575L42.2211 62.0707L42.3627 62.1978L42.5389 62.2931L42.7613 62.4029C42.9202 62.4607 43.0791 62.5127 43.2409 62.5647L43.4778 62.6109L43.6858 62.66H43.8736L43.6973 62.7871L43.4749 62.9287L43.238 63.0587L43.0618 63.1858L43.2207 63.2955C43.7031 63.544 44.1971 63.7751 44.6998 63.9802C45.578 64.3384 46.4764 64.6504 47.3807 64.9307C47.5829 64.9798 47.7822 65.0318 47.9816 65.0895L48.2358 65.1387L47.7244 65.0895C47.4066 65.0485 47.0897 65.0003 46.774 64.9451L46.3291 64.8498L45.4538 64.5984L45.0436 64.454C43.9458 64.0264 42.874 63.5353 41.7733 63.1193L41.8542 63.0731L42.0767 62.9922L42.2182 62.9604C42.4118 62.9027 42.5996 62.8391 42.7902 62.7698C42.412 62.7124 42.0353 62.645 41.6607 62.5675C41.4665 62.5044 41.271 62.4457 41.0742 62.3913L40.9616 62.3422L40.8662 62.2931L40.7882 62.2411L40.7362 62.1949V62.1804L40.7536 62.1631L40.8027 62.1458L40.8489 62.114L40.976 62.0649L41.5307 61.9031L41.8513 61.7933C41.392 61.7067 40.9298 61.6287 40.4676 61.5564L40.2451 61.5044L40.0689 61.4438L40.0053 61.4091L39.9447 61.36L39.8927 61.3311L39.8609 61.2791L39.91 61.2473L40.0516 61.2155C40.1989 61.1924 40.3491 61.1664 40.4964 61.1375L40.7507 61.1058C40.8951 61.0653 41.0367 61.022 41.1782 60.9758L41.2447 60.9295L41.3082 60.8775L41.0569 60.7822L40.8951 60.7533L40.7362 60.7187L40.0082 60.6233L39.8176 60.5771L39.6413 60.5424L39.2918 60.4182L39.13 60.3373L39 60.2449L38.8729 60.1322L38.7776 59.9907L38.8122 59.9733L38.8729 59.956H38.9538L39.0809 59.9733L39.6847 60.0051L40.0371 60.0398H40.4791L40.6033 60.0224L40.7016 59.9907L40.7651 59.956C40.4662 59.8343 40.1696 59.7072 39.8753 59.5747C39.6806 59.4759 39.4841 59.3805 39.286 59.2887L38.6851 58.9738L38.3991 58.7975C38.2229 58.673 38.0486 58.5459 37.8762 58.4162L37.6538 58.2255L37.5556 58.1158L37.4573 58.0204L37.3967 57.9251L37.3302 57.8124L37.2667 57.72L37.232 57.6102L37.206 57.4051H37.3129L37.44 57.4195L37.5671 57.4715L37.6942 57.5178L37.9456 57.6767L38.2316 57.8355L38.3587 57.9164L38.5002 57.9915L38.6418 58.0551L38.7689 58.1042L38.9104 58.1389L39.0376 58.1533H39.182L39.3062 58.1042L38.9307 57.8153C38.6195 57.5571 38.3123 57.2942 38.0091 57.0267C37.5063 56.5479 37.0235 56.0487 36.5618 55.5302L36.3596 55.2615L36.1516 55.0073C36.0375 54.8442 35.9258 54.6796 35.8164 54.5133L35.7876 54.4498V54.34L35.802 54.2909L35.8164 54.2447L35.8656 54.2129L35.9118 54.1638L35.9638 54.1291L36.0244 54.1118L36.088 54.1002H36.2151L36.2931 54.1118L36.3624 54.1291L36.4231 54.1782C36.7669 54.5191 37.1049 54.8629 37.4371 55.2124C37.804 55.5649 38.1853 55.9058 38.5811 56.2293L38.9451 56.4633L39.1329 56.5615L39.3091 56.6222L39.1849 56.5442L38.8527 56.212C38.4453 55.744 38.0582 55.2587 37.6769 54.7675C37.5089 54.5368 37.3443 54.3038 37.1829 54.0684C37.039 53.8383 36.8906 53.611 36.738 53.3867C36.617 53.188 36.5004 52.9867 36.3884 52.7829C36.324 52.618 36.2566 52.4542 36.1862 52.2918L36.166 52.2138V52.0838L36.1862 52.0375L36.2469 51.9422L36.2816 51.9075L36.3307 51.8787L36.5358 51.8122H36.7582L36.8218 51.8267L36.868 51.844L36.9316 51.8787L37.1078 52.0375L37.5209 52.5633C37.8444 53.0602 38.1853 53.5455 38.5378 54.0222L38.9133 54.4989L39.1213 54.704L39.3438 54.8947C39.0907 54.4146 38.848 53.9291 38.6158 53.4387C38.5175 53.2126 38.4221 52.9854 38.3298 52.7569L38.2027 52.4073C38.1355 52.1664 38.0613 51.9275 37.9802 51.6909L37.9022 51.3413L37.8444 50.986L37.8098 50.6538L37.7953 50.3389L37.8098 50.18L37.83 50.0355L37.8444 49.8911L37.8762 49.7495L37.908 49.6975L37.9253 49.6513L37.9716 49.5993L38.0033 49.5704L38.1131 49.5213L38.2258 49.4924H38.3356L38.4309 49.5098L38.4771 49.5213L38.5118 49.5387L38.5291 49.5733L38.5464 49.6195C38.818 50.5064 39.0404 51.4078 39.2744 52.3062C39.3669 52.5575 39.4622 52.806 39.5633 53.0515L39.6731 53.2884L39.8002 53.5109L39.9418 53.7333L39.8493 53.2711C39.8131 53.0073 39.7707 52.7443 39.7222 52.4824C39.6905 52.1758 39.6645 51.8685 39.6442 51.5609L39.676 51.1478L39.7078 50.986L39.7569 50.8618L39.8204 50.7664L39.8522 50.7318L39.8984 50.7L39.9447 50.6855H40.0891L40.2191 50.7318L40.3433 50.7953L40.5658 51.7949C40.6467 52.0982 40.7362 52.4015 40.8344 52.6991C40.9962 53.1527 41.1724 53.6033 41.3602 54.0482L41.5827 54.5075L41.9004 55.1142L42.2471 55.7151L42.6313 56.2871L43.0416 56.8562L43.4258 57.3329C43.6916 57.6333 43.9602 57.9309 44.2347 58.2227C44.5207 58.5029 44.8124 58.7773 45.11 59.046L45.5693 59.4302C45.9911 59.7595 46.4244 60.0715 46.8722 60.3662C47.2218 60.5742 47.5771 60.7764 47.9353 60.97L49.0273 61.4958C49.582 61.7153 50.1424 61.9175 50.7087 62.0967C51.2633 62.244 51.8267 62.3711 52.3929 62.478C53.1527 62.5993 53.9327 62.6715 54.7156 62.7033Z" fill="#FFCC4D"/>
<path d="M9.98689 82.3969C9.98689 82.3969 9.30223 82.966 9.07112 82.68C8.69845 82.2178 10.218 79.9095 10.218 79.0949C10.218 77.7631 9.32534 77.3933 8.22756 77.2055C7.488 77.0784 6.28912 77.2604 6.28912 77.2604C6.51445 77.5638 6.66178 77.6591 7.04312 77.6764C6.78037 77.8146 6.56124 78.0232 6.41023 78.2788C6.25922 78.5344 6.18228 78.8269 6.188 79.1238C6.188 80.2678 6.66178 80.7415 6.66178 82.0387C6.66178 82.758 6.07245 83.6709 6.07245 83.6709C7.11245 83.5669 7.63245 82.6049 7.33778 81.8307C7.41739 81.8158 7.49942 81.8203 7.57688 81.844C7.65434 81.8676 7.72494 81.9096 7.78267 81.9664C7.85778 81.7555 7.73934 81.5042 7.57756 81.2933C7.70756 81.2269 7.80289 81.2673 8.008 81.3078C7.98778 81.0882 7.85489 80.8571 7.53423 80.6375C8.47023 80.8773 9.04512 80.2273 9.04512 79.5455C9.04512 79.0255 8.684 78.6558 8.32867 78.6558C8.19409 78.6601 8.06324 78.701 7.95023 78.7742C7.88378 78.6355 7.91845 78.4449 7.98489 78.3033C7.72778 78.3698 7.56312 78.5229 7.68156 78.8464C7.59345 78.8479 7.5066 78.8676 7.42653 78.9044C7.34646 78.9412 7.27492 78.9943 7.21645 79.0602C7.27171 79.1295 7.34278 79.1846 7.42371 79.2208C7.50463 79.257 7.59305 79.2732 7.68156 79.2682C7.53712 79.5687 7.69889 79.7391 7.93289 79.872C7.93289 79.872 7.78267 79.2682 8.16689 79.2682C8.34023 79.2682 8.49623 79.3289 8.49623 79.5802C8.49623 79.7969 8.30267 80.1031 7.85778 80.0858C7.41 80.0655 7.04889 79.7767 7.04889 79.0689C7.04889 78.4073 7.57756 78.0809 8.27378 78.0607C8.90356 78.0404 9.37734 78.3813 9.37734 79.0313C9.37734 79.8922 8.12934 81.8624 8.12934 82.6309C8.12934 83.2087 8.64645 83.5293 9.15489 83.5293C9.81356 83.5293 10.3682 82.8764 10.3682 82.8764L9.98689 82.3969ZM9.84245 66.7911C9.84245 65.3524 11.1367 64.61 12.1536 64.61C13.5229 64.61 14.2538 65.4304 14.2538 66.4993C14.2538 67.1118 14.1411 67.4931 13.8609 68.0738L10.7207 74.594C10.6057 74.8677 10.5553 75.1643 10.5733 75.4607C10.5733 76.0442 11.1424 76.5238 11.7376 76.5382C12.2778 76.5527 12.87 76.0327 12.87 75.4404C12.87 74.7211 12.5002 74.4033 12.116 74.4033C11.6451 74.4033 11.4573 74.594 11.4573 74.9262C11.4573 75.1602 11.57 75.2584 11.7289 75.2584C12.1333 75.2584 12.0207 74.7153 12.0207 74.7153C12.0745 74.7265 12.1252 74.7494 12.1692 74.7824C12.2132 74.8153 12.2494 74.8576 12.2753 74.906C12.3012 74.9545 12.3162 75.0081 12.3191 75.063C12.322 75.1179 12.3128 75.1728 12.2922 75.2238C12.4435 75.2556 12.5804 75.3357 12.6822 75.452C12.5782 75.5628 12.4416 75.6377 12.2922 75.6658C12.3876 75.9778 12.2604 76.1309 11.9889 76.1973C12.0357 76.0922 12.0488 75.9751 12.0264 75.8622C11.596 75.9835 10.9373 75.7929 10.9373 75.0475C10.9373 74.308 11.4487 73.6869 12.4107 73.84C12.1796 73.736 12.0669 73.5135 12.0438 73.2593C12.2171 73.3315 12.4107 73.3402 12.4107 73.3402C12.298 73.1438 12.142 72.9733 12.1478 72.5804C12.3269 72.6642 12.4916 72.8115 12.7198 72.7162C12.3616 72.0142 12.8007 71.0493 13.9216 70.8153C13.5411 71.229 13.3244 71.7672 13.312 72.3291C13.312 74.0047 13.78 74.282 13.78 75.4433C13.7723 75.7141 13.7007 75.9792 13.5712 76.2172C13.4417 76.4551 13.2579 76.6591 13.0347 76.8127V76.7924C13.3582 76.8791 13.5691 77.0438 13.6904 77.2604C12.9422 77.4713 11.8531 77.4684 11.2724 77.2402C11.0092 77.2021 10.7578 77.1058 10.5365 76.9584C10.3151 76.811 10.1293 76.6161 9.99267 76.388C9.85146 76.0625 9.7786 75.7115 9.7786 75.3567C9.7786 75.0018 9.85146 74.6508 9.99267 74.3253C10.4376 73.398 12.5349 68.952 13.1878 67.5509C13.3318 67.2536 13.4078 66.9279 13.4102 66.5975C13.4102 65.7453 12.6273 65.4449 12.1824 65.4449C11.648 65.4449 11.1049 65.8551 11.1049 66.3578C11.1049 66.6813 11.2811 66.872 11.5296 66.872C12.1333 66.872 12.0958 66.3607 11.9744 66.0371C12.3471 66.2104 12.5667 66.5051 12.506 66.8229C12.7198 66.8518 12.922 66.9529 13.1069 67.1609C12.9596 67.3515 12.7804 67.4902 12.506 67.4931C12.6273 67.9842 12.298 68.1922 11.9744 68.3049C12.0756 67.9467 12.142 67.5278 11.5296 67.5278C11.0818 67.5278 10.7293 67.4498 10.5242 67.158C10.5098 67.548 10.4722 69.0791 10.4722 69.0791C10.4491 69.6569 11.2436 69.6395 11.7491 69.4691C11.5556 70.1335 11.1656 70.4947 10.2556 70.4022C10.3949 70.4559 10.514 70.552 10.5958 70.6769C10.6777 70.8018 10.7184 70.9492 10.712 71.0984C10.712 71.6415 10.2729 72.2395 9.98689 72.4187L9.84245 66.7911Z" fill="#FFCC4D"/>
<path d="M10.1283 66.7911C10.1283 65.3524 8.83406 64.61 7.81717 64.61C6.44784 64.61 5.71695 65.4304 5.71695 66.4993C5.71695 67.1118 5.82962 67.4931 6.10984 68.0738L9.25006 74.594C9.36401 74.868 9.41343 75.1645 9.39451 75.4607C9.39451 76.0442 8.82539 76.5238 8.23317 76.5382C7.69006 76.5527 7.10073 76.0327 7.10073 75.4404C7.10073 74.7211 7.47051 74.4033 7.85473 74.4033C8.32562 74.4033 8.51339 74.594 8.51339 74.9262C8.51339 75.1602 8.40073 75.2584 8.24184 75.2584C7.83739 75.2584 7.95006 74.7153 7.95006 74.7153C7.89624 74.7265 7.84554 74.7494 7.80154 74.7824C7.75753 74.8153 7.72131 74.8576 7.69541 74.9061C7.66951 74.9545 7.65457 75.0081 7.65165 75.063C7.64873 75.1179 7.6579 75.1728 7.67851 75.2238C7.52721 75.2556 7.39035 75.3357 7.28851 75.452C7.39254 75.5628 7.52912 75.6377 7.67851 75.6658C7.58606 75.9778 7.71317 76.1309 7.98473 76.1944C7.93792 76.0893 7.9248 75.9722 7.94717 75.8593C8.37762 75.9807 9.03628 75.79 9.03628 75.0447C9.03628 74.3051 8.52495 73.684 7.56584 73.8371C7.79406 73.7331 7.90962 73.5107 7.92984 73.2564C7.81336 73.3019 7.6906 73.3291 7.56584 73.3373C7.67562 73.1409 7.83162 72.9704 7.82584 72.5775C7.64673 72.6613 7.48495 72.8087 7.25384 72.7133C7.61206 72.0113 7.17295 71.0464 6.05206 70.8124C6.43256 71.2261 6.64927 71.7643 6.66162 72.3262C6.66162 74.0018 6.19651 74.2791 6.19651 75.4404C6.19651 75.9258 6.44784 76.4544 6.94184 76.8098V76.7895C6.80585 76.8173 6.67721 76.8733 6.56424 76.9539C6.45127 77.0345 6.3565 77.138 6.28606 77.2575C7.03428 77.4684 8.12051 77.4655 8.70406 77.2373C8.96727 77.1992 9.21868 77.1029 9.44005 76.9555C9.66141 76.8081 9.84717 76.6133 9.98384 76.3851C10.1251 76.0596 10.1979 75.7086 10.1979 75.3538C10.1979 74.999 10.1251 74.6479 9.98384 74.3224C9.53895 73.3951 7.44162 68.9491 6.78873 67.548C6.64471 67.2507 6.56872 66.925 6.56628 66.5947C6.56628 65.7424 7.34917 65.442 7.79406 65.442C8.32851 65.442 8.87162 65.8522 8.87162 66.3549C8.87162 66.6784 8.69539 66.8691 8.44695 66.8691C7.84317 66.8691 7.88073 66.3578 7.99917 66.0342C7.62651 66.2075 7.40695 66.5022 7.46762 66.82C7.2328 66.8556 7.01909 66.9758 6.86673 67.158C7.01406 67.3487 7.19317 67.4873 7.46762 67.4902C7.34628 67.9813 7.67562 68.1893 7.99917 68.302C7.89806 67.9438 7.83162 67.5249 8.44695 67.5249C8.89473 67.5249 9.24717 67.4469 9.45228 67.1551L9.50428 69.0762C9.52739 69.654 8.73006 69.6367 8.2245 69.4662C8.41517 70.1278 8.80806 70.4889 9.71517 70.3964C9.5758 70.4501 9.45678 70.5462 9.37489 70.6711C9.29301 70.796 9.25237 70.9434 9.25873 71.0927C9.25873 71.6358 9.69495 72.2338 9.98384 72.4129L10.1283 66.7911ZM9.98673 82.3969C9.98673 82.3969 10.6714 82.966 10.9025 82.68C11.2752 82.2178 9.75562 79.9095 9.75562 79.0949C9.75562 77.7631 10.6483 77.3933 11.7461 77.2055C12.4856 77.0784 13.6874 77.2604 13.6874 77.2604C13.4592 77.5638 13.3147 77.6591 12.9334 77.6764C13.1959 77.8149 13.4149 78.0235 13.5658 78.279C13.7168 78.5346 13.7939 78.827 13.7885 79.1238C13.7885 80.2678 13.3147 80.7415 13.3147 82.0387C13.3147 82.758 13.9041 83.6709 13.9041 83.6709C12.8641 83.5669 12.3441 82.6049 12.6387 81.8307C12.5591 81.8163 12.4772 81.8211 12.3998 81.8447C12.3225 81.8683 12.2518 81.91 12.1938 81.9664C12.1187 81.7555 12.2401 81.5042 12.3989 81.2933C12.2689 81.2269 12.1736 81.2673 11.9685 81.3078C11.9887 81.0882 12.1187 80.8571 12.4423 80.6375C11.5063 80.8773 10.9314 80.2273 10.9314 79.5455C10.9314 79.0255 11.2925 78.6558 11.6478 78.6558C11.7634 78.6558 11.9309 78.7049 12.0263 78.7742C12.0927 78.6355 12.0581 78.4449 11.9887 78.3033C12.2487 78.3698 12.4105 78.5229 12.2949 78.8464C12.383 78.848 12.4698 78.8679 12.5499 78.9047C12.6299 78.9415 12.7015 78.9944 12.7601 79.0602C12.7048 79.1295 12.6337 79.1846 12.5528 79.2208C12.4719 79.257 12.3835 79.2732 12.2949 79.2682C12.4394 79.5687 12.2776 79.7391 12.0436 79.872C12.0436 79.872 12.1938 79.2682 11.8096 79.2682C11.6363 79.2682 11.4803 79.3289 11.4803 79.5802C11.4803 79.7969 11.6738 80.1031 12.1187 80.0858C12.5636 80.0655 12.9247 79.7767 12.9247 79.0689C12.9247 78.4073 12.3961 78.0809 11.6998 78.0607C11.0701 78.0404 10.5963 78.3813 10.5963 79.0313C10.5963 79.8922 11.8443 81.8624 11.8443 82.6309C11.8443 83.2087 11.3272 83.5293 10.8187 83.5293C10.1601 83.5293 9.60539 82.8764 9.60539 82.8764L9.98673 82.3969ZM9.84228 41.5335C9.84228 40.0891 11.1365 39.3495 12.1534 39.3495C13.5227 39.3495 14.2536 40.17 14.2536 41.2418C14.2536 41.8513 14.1409 42.2327 13.8607 42.8133L10.7205 49.3364C10.6054 49.6091 10.555 49.9048 10.5732 50.2002C10.5732 50.7867 11.1423 51.2633 11.7374 51.2807C12.2776 51.2922 12.8698 50.7722 12.8698 50.1829C12.8698 49.4664 12.5001 49.1458 12.1158 49.1458C11.6449 49.1458 11.4572 49.3393 11.4572 49.6715C11.4572 49.8998 11.5698 50.0009 11.7287 50.0009C12.1332 50.0009 12.0205 49.4578 12.0205 49.4578C12.0739 49.4687 12.1242 49.4912 12.1679 49.5237C12.2116 49.5561 12.2477 49.5978 12.2736 49.6457C12.2995 49.6936 12.3146 49.7467 12.3177 49.801C12.3209 49.8554 12.3122 49.9098 12.2921 49.9604C12.4435 49.9936 12.5802 50.0747 12.6821 50.1915C12.5776 50.3023 12.4413 50.378 12.2921 50.4082C12.3874 50.7202 12.2603 50.8704 11.9887 50.9369C12.0357 50.8318 12.0488 50.7147 12.0263 50.6018C11.5958 50.7231 10.9372 50.5324 10.9372 49.7871C10.9372 49.0504 11.4485 48.4293 12.4105 48.5824C12.1794 48.4727 12.0667 48.2502 12.0436 48.0018C12.217 48.0711 12.4105 48.0769 12.4105 48.0769C12.2978 47.8804 12.1418 47.71 12.1476 47.32C12.3267 47.4009 12.4914 47.5511 12.7196 47.4558C12.3614 46.7509 12.8005 45.7831 13.9214 45.5549C13.5418 45.9691 13.3252 46.5069 13.3118 47.0687C13.3118 48.7413 13.7798 49.0215 13.7798 50.1858C13.7798 50.6711 13.5285 51.1969 13.0345 51.5551V51.5349C13.3523 51.6215 13.5603 51.7804 13.6845 52C12.9363 52.2138 11.8472 52.208 11.2665 51.9798C11.0035 51.9411 10.7523 51.8446 10.531 51.6972C10.3097 51.5498 10.1239 51.3553 9.98673 51.1275C9.84549 50.8031 9.7726 50.453 9.7726 50.0991C9.7726 49.7452 9.84549 49.3951 9.98673 49.0707C10.4316 48.1404 12.529 43.6944 13.1818 42.2933C13.3243 41.9955 13.4002 41.6702 13.4043 41.34C13.4043 40.4849 12.6214 40.1844 12.1765 40.1844C11.6421 40.1844 11.0989 40.5918 11.0989 41.0944C11.0989 41.418 11.2752 41.6115 11.5236 41.6115C12.1274 41.6115 12.0898 41.0973 11.9685 40.7767C12.3412 40.9442 12.5607 41.2447 12.5001 41.5624C12.7138 41.5913 12.9161 41.6895 13.1009 41.9033C12.9536 42.0882 12.7745 42.2269 12.5001 42.2327C12.6214 42.7267 12.2921 42.9347 11.9685 43.0473C12.0696 42.6891 12.1361 42.2731 11.5236 42.2731C11.0758 42.2731 10.7234 42.1951 10.5183 41.9062C10.5038 42.2933 10.4663 43.8273 10.4663 43.8273C10.4432 44.4022 11.2376 44.3878 11.7432 44.2144C11.5554 44.8789 11.1654 45.2371 10.2554 45.1447C10.395 45.1989 10.5141 45.2955 10.596 45.4209C10.6779 45.5463 10.7184 45.6942 10.7118 45.8438C10.7118 46.384 10.2727 46.9849 9.98673 47.1611L9.84228 41.5335Z" fill="#FFCC4D"/>
<path d="M10.1283 41.5335C10.1283 40.0891 8.83406 39.3495 7.81717 39.3495C6.44784 39.3495 5.71695 40.17 5.71695 41.2418C5.71695 41.8513 5.82962 42.2327 6.10984 42.8133L9.25006 49.3364C9.35984 49.5647 9.39451 49.8218 9.39451 50.2002C9.39451 50.7867 8.82539 51.2633 8.23317 51.2807C7.69006 51.2922 7.10073 50.7722 7.10073 50.1829C7.10073 49.4664 7.47051 49.1458 7.85473 49.1458C8.32562 49.1458 8.51339 49.3393 8.51339 49.6715C8.51339 49.8998 8.40073 50.0009 8.24184 50.0009C7.83739 50.0009 7.95006 49.4578 7.95006 49.4578C7.89644 49.4682 7.84581 49.4904 7.8018 49.5228C7.75779 49.5552 7.72149 49.5969 7.69553 49.6449C7.66956 49.693 7.65457 49.7462 7.65163 49.8008C7.64868 49.8553 7.65786 49.9099 7.67851 49.9604C7.52707 49.9936 7.39033 50.0747 7.28851 50.1915C7.39298 50.3023 7.52923 50.378 7.67851 50.4082C7.58606 50.7202 7.71028 50.8704 7.98184 50.9369C7.93485 50.8318 7.92172 50.7147 7.94428 50.6018C8.37473 50.7231 9.03339 50.5324 9.03339 49.7871C9.03339 49.0504 8.52206 48.4293 7.56295 48.5824C7.79117 48.4727 7.90673 48.2502 7.92695 48.0018C7.75362 48.0711 7.56295 48.0769 7.56295 48.0769C7.67273 47.8804 7.82873 47.71 7.82295 47.32C7.64384 47.4009 7.48206 47.5511 7.25095 47.4558C7.60917 46.7509 7.17006 45.7831 6.04917 45.5549C6.42877 45.9691 6.64533 46.5069 6.65873 47.0687C6.65873 48.7413 6.19362 49.0215 6.19362 50.1858C6.19362 50.6711 6.44495 51.1969 6.93895 51.5551V51.5349C6.61828 51.6215 6.40739 51.7804 6.28895 52C7.03717 52.2138 8.12339 52.208 8.70695 51.9798C8.96997 51.9411 9.22115 51.8446 9.44243 51.6972C9.66371 51.5498 9.84959 51.3553 9.98673 51.1275C10.128 50.8031 10.2009 50.453 10.2009 50.0991C10.2009 49.7452 10.128 49.3951 9.98673 49.0707C9.54184 48.1404 7.44451 43.6944 6.79162 42.2933C6.64783 41.997 6.57184 41.6723 6.56917 41.3429C6.56917 40.4878 7.35206 40.1873 7.79695 40.1873C8.33139 40.1873 8.87451 40.5947 8.87451 41.0973C8.87451 41.4209 8.69828 41.6144 8.44984 41.6144C7.84606 41.6144 7.88362 41.1002 8.00206 40.7795C7.62939 40.9471 7.40984 41.2475 7.47051 41.5653C7.23463 41.5998 7.02025 41.7215 6.86962 41.9062C7.01695 42.0911 7.19606 42.2298 7.47051 42.2355C7.34917 42.7295 7.67851 42.9375 8.00206 43.0502C7.90095 42.692 7.83451 42.276 8.44984 42.276C8.89762 42.276 9.25006 42.198 9.45517 41.9091L9.50428 43.8244C9.52739 44.3993 8.73006 44.3849 8.2245 44.2115C8.41517 44.876 8.80806 45.2342 9.71517 45.1447C9.57557 45.1989 9.45646 45.2955 9.37459 45.4209C9.29271 45.5463 9.2522 45.6942 9.25873 45.8438C9.25873 46.384 9.69495 46.9849 9.98384 47.1611L10.1283 41.5335Z" fill="#FFCC4D"/>
<path d="M10.1285 37.206C10.1285 38.6475 8.83423 39.39 7.81734 39.39C6.44801 39.39 5.71712 38.5695 5.71712 37.4949C5.71712 36.8882 5.82978 36.5069 6.11001 35.9233L9.25023 29.4002C9.36414 29.1272 9.41357 28.8316 9.39467 28.5364C9.39467 27.9529 8.82556 27.4733 8.23334 27.4589C7.69023 27.4473 7.10089 27.9644 7.10089 28.5567C7.10089 29.276 7.47067 29.5938 7.85489 29.5938C8.32578 29.5938 8.51356 29.4002 8.51356 29.068C8.51356 28.8369 8.40089 28.7387 8.24201 28.7387C7.83756 28.7387 7.95023 29.2818 7.95023 29.2818C7.89651 29.2709 7.84584 29.2484 7.80184 29.2157C7.75783 29.1831 7.72157 29.1411 7.69564 29.0928C7.6697 29.0445 7.65474 28.9911 7.65181 28.9364C7.64887 28.8817 7.65805 28.827 7.67867 28.7762C7.52659 28.7465 7.3891 28.666 7.28867 28.548C7.39411 28.439 7.53007 28.3645 7.67867 28.3342C7.58623 28.0222 7.71334 27.872 7.98489 27.8055C7.9379 27.9106 7.92478 28.0278 7.94734 28.1407C8.37778 28.0193 9.03645 28.2158 9.03645 28.9553C9.03645 29.692 8.52512 30.3131 7.56601 30.16C7.79423 30.2698 7.90978 30.4922 7.93 30.7407C7.81279 30.6987 7.69026 30.6734 7.56601 30.6655C7.67578 30.862 7.83178 31.0324 7.82601 31.4224C7.64689 31.3415 7.48512 31.1913 7.25401 31.2867C7.61223 31.9915 7.17312 32.9593 6.05223 33.1904C6.43179 32.775 6.6483 32.2363 6.66178 31.6738C6.66178 30.004 6.19667 29.7209 6.19667 28.5595C6.19667 28.0742 6.44801 27.5484 6.94201 27.1902V27.2104C6.80635 27.1818 6.67819 27.1252 6.56575 27.0441C6.45331 26.963 6.35908 26.8592 6.28912 26.7395C7.03734 26.5287 8.12356 26.5315 8.70712 26.7627C8.97058 26.8011 9.22216 26.8978 9.44354 27.0457C9.66493 27.1937 9.85055 27.3891 9.98689 27.6178C10.1283 27.9422 10.2013 28.2923 10.2013 28.6462C10.2013 29.0001 10.1283 29.3502 9.98689 29.6747C9.54201 30.6049 7.44467 35.0509 6.79178 36.4491C6.64772 36.7454 6.57172 37.0701 6.56934 37.3995C6.56934 38.2575 7.35223 38.5551 7.79712 38.5551C8.33156 38.5551 8.87467 38.1478 8.87467 37.6422C8.87467 37.3215 8.69845 37.1251 8.45001 37.1251C7.84623 37.1251 7.88378 37.6364 8.00223 37.96C7.62956 37.7924 7.41001 37.492 7.47067 37.1742C7.23517 37.1386 7.02114 37.0172 6.86978 36.8333C7.01712 36.6484 7.19623 36.5069 7.47067 36.504C7.34934 36.0129 7.67867 35.802 8.00223 35.6864C7.90112 36.0475 7.83467 36.4664 8.45001 36.4664C8.89778 36.4664 9.25023 36.5415 9.45534 36.8333L9.50734 34.9093C9.53045 34.3344 8.73312 34.3518 8.22756 34.5222C8.41823 33.8578 8.81112 33.4995 9.71823 33.5891C9.57862 33.5349 9.45951 33.4383 9.37764 33.3129C9.29577 33.1875 9.25525 33.0396 9.26178 32.89C9.26178 32.3498 9.69801 31.7489 9.98689 31.5727L10.1285 37.206ZM10.1285 62.4664C10.1285 63.908 8.83423 64.6475 7.81734 64.6475C6.44801 64.6475 5.71712 63.83 5.71712 62.7582C5.71012 62.2092 5.84548 61.6678 6.11001 61.1867L9.25023 54.6635C9.36414 54.3906 9.41357 54.095 9.39467 53.7998C9.39467 53.2133 8.82556 52.7367 8.23334 52.7222C7.69023 52.7078 7.10089 53.2278 7.10089 53.8171C7.10089 54.5335 7.47067 54.8542 7.85489 54.8542C8.32578 54.8542 8.51356 54.6607 8.51356 54.3284C8.51356 54.1002 8.40089 54.002 8.24201 54.002C7.83756 54.002 7.95023 54.5451 7.95023 54.5451C7.89677 54.5338 7.84642 54.511 7.80269 54.4782C7.75896 54.4454 7.72292 54.4035 7.69706 54.3554C7.6712 54.3072 7.65616 54.254 7.65299 54.1995C7.64981 54.1449 7.65858 54.0904 7.67867 54.0395C7.52628 54.0088 7.38881 53.9273 7.28867 53.8084C7.39343 53.6985 7.52969 53.6239 7.67867 53.5947C7.58623 53.2798 7.71045 53.1295 7.98201 53.0631C7.93501 53.1682 7.92189 53.2853 7.94445 53.3982C8.37489 53.2769 9.03356 53.4704 9.03356 54.2129C9.03356 54.9495 8.52223 55.5678 7.56312 55.4175C7.79134 55.5302 7.90689 55.7498 7.92712 56.0011C7.75378 55.9347 7.56312 55.9231 7.56312 55.9231C7.67289 56.1195 7.82889 56.2929 7.82312 56.68C7.64401 56.5991 7.48223 56.4489 7.25112 56.5442C7.60934 57.2462 7.17023 58.2198 6.04934 58.4451C6.42939 58.0311 6.64602 57.4931 6.65889 56.9313C6.65889 55.2644 6.19378 54.9784 6.19378 53.8171C6.19378 53.3289 6.44512 52.8031 6.93912 52.4478V52.4651C6.61845 52.3813 6.40756 52.2224 6.28912 52C7.03734 51.7891 8.12356 51.792 8.70712 52.0231C8.97014 52.0618 9.22131 52.1583 9.44259 52.3057C9.66387 52.453 9.84976 52.6476 9.98689 52.8753C10.1281 53.1998 10.201 53.5499 10.201 53.9038C10.201 54.2576 10.1281 54.6077 9.98689 54.9322C9.54201 55.8624 7.44467 60.3084 6.79178 61.7095C6.64735 62.0057 6.57133 62.3305 6.56934 62.66C6.56934 63.5151 7.35223 63.8127 7.79712 63.8127C8.33156 63.8127 8.87467 63.4053 8.87467 62.8998C8.87467 62.5849 8.69845 62.3884 8.45001 62.3884C7.84623 62.3884 7.88378 62.8998 8.00223 63.2204C7.62956 63.0529 7.41001 62.7495 7.47067 62.4347C7.23495 62.4017 7.02035 62.281 6.86978 62.0967C6.93827 61.9994 7.02793 61.919 7.13202 61.8614C7.23611 61.8039 7.3519 61.7707 7.47067 61.7644C7.34934 61.2733 7.67867 61.0682 8.00223 60.9527C7.90112 61.3138 7.83467 61.7298 8.45001 61.7298C8.89778 61.7298 9.25023 61.8049 9.45534 62.0995L9.50734 60.1755C9.53045 59.6035 8.73312 59.618 8.22756 59.7884C8.41823 59.1269 8.81112 58.7687 9.71823 58.8582C9.57862 58.804 9.45951 58.7074 9.37764 58.582C9.29577 58.4566 9.25525 58.3087 9.26178 58.1591C9.26178 57.6189 9.69801 57.0209 9.98689 56.8418L10.1285 62.4664Z" fill="#FFCC4D"/>
<path d="M9.84245 62.4664C9.84245 63.908 11.1367 64.6475 12.1536 64.6475C13.5229 64.6475 14.2538 63.83 14.2538 62.7582C14.2608 62.2092 14.1254 61.6678 13.8609 61.1867L10.7207 54.6635C10.6056 54.3908 10.5552 54.0952 10.5733 53.7998C10.5733 53.2133 11.1425 52.7367 11.7376 52.7222C12.2778 52.7078 12.87 53.2278 12.87 53.8171C12.87 54.5335 12.5002 54.8542 12.116 54.8542C11.6451 54.8542 11.4573 54.6607 11.4573 54.3284C11.4573 54.1002 11.57 54.002 11.7289 54.002C12.1333 54.002 12.0207 54.5451 12.0207 54.5451C12.0741 54.5338 12.1245 54.511 12.1682 54.4782C12.2119 54.4454 12.248 54.4035 12.2738 54.3554C12.2997 54.3072 12.3147 54.254 12.3179 54.1995C12.3211 54.1449 12.3123 54.0904 12.2922 54.0395C12.4446 54.0088 12.5821 53.9273 12.6822 53.8084C12.5775 53.6985 12.4412 53.6239 12.2922 53.5947C12.3876 53.2798 12.2605 53.1295 11.9889 53.0631C12.0438 53.1844 12.0438 53.2942 12.0265 53.3982C11.596 53.2769 10.9373 53.4704 10.9373 54.2129C10.9373 54.9495 11.4487 55.5678 12.4107 55.4175C12.1796 55.5302 12.0669 55.7498 12.0438 56.0011C12.2171 55.9347 12.4107 55.9231 12.4107 55.9231C12.298 56.1195 12.142 56.2929 12.1478 56.68C12.3269 56.5991 12.4916 56.4489 12.7198 56.5442C12.3616 57.2462 12.8007 58.2198 13.9216 58.4451C13.5415 58.0311 13.3249 57.4931 13.312 56.9313C13.312 55.2644 13.78 54.9784 13.78 53.8171C13.7727 53.5462 13.7014 53.2809 13.5718 53.0429C13.4423 52.8049 13.2582 52.601 13.0347 52.4478V52.4651C13.1708 52.4377 13.2996 52.3819 13.4126 52.3012C13.5256 52.2206 13.6203 52.1169 13.6905 51.9971C12.9422 51.7862 11.8531 51.7891 11.2725 52.0202C11.0094 52.0589 10.7583 52.1554 10.537 52.3028C10.3157 52.4501 10.1298 52.6447 9.99268 52.8724C9.85144 53.1969 9.77855 53.547 9.77855 53.9009C9.77855 54.2548 9.85144 54.6048 9.99268 54.9293C10.4376 55.8595 12.5349 60.3055 13.1878 61.7067C13.3265 62.0013 13.4102 62.3133 13.4102 62.6571C13.4102 63.5122 12.6273 63.8098 12.1825 63.8098C11.648 63.8098 11.1049 63.4024 11.1049 62.8969C11.1049 62.582 11.2811 62.3855 11.5296 62.3855C12.1333 62.3855 12.0958 62.8969 11.9745 63.2175C12.3471 63.05 12.5667 62.7467 12.506 62.4318C12.7421 62.3999 12.9571 62.279 13.1069 62.0938C13.0384 61.9965 12.9487 61.9161 12.8447 61.8585C12.7406 61.801 12.6248 61.7678 12.506 61.7615C12.6273 61.2704 12.298 61.0653 11.9745 60.9498C12.0756 61.3109 12.142 61.7269 11.5296 61.7269C11.0818 61.7269 10.7293 61.802 10.5242 62.0967C10.5098 61.7095 10.4722 60.1727 10.4722 60.1727C10.4491 59.6007 11.2436 59.6151 11.7491 59.7855C11.5556 59.124 11.1656 58.7658 10.2556 58.8553C10.3952 58.8011 10.5143 58.7045 10.5962 58.5791C10.678 58.4537 10.7185 58.3058 10.712 58.1562C10.712 57.616 10.2729 57.018 9.9869 56.8389L9.84245 62.4664ZM9.9869 21.606C9.9869 21.606 10.6716 21.0311 10.9027 21.3171C11.2753 21.7822 9.75579 24.0904 9.75579 24.9051C9.75579 26.2398 10.6485 26.6009 11.7462 26.7915C12.4858 26.9215 13.6876 26.7395 13.6876 26.7395C13.4565 26.4362 13.312 26.3467 12.9307 26.3235C13.1934 26.1868 13.4127 25.9794 13.5638 25.7247C13.7149 25.47 13.7918 25.1781 13.7858 24.882C13.7858 23.7322 13.312 23.2584 13.312 21.9642C13.312 21.2449 13.9013 20.3291 13.9013 20.3291C12.8613 20.436 12.3413 21.398 12.636 22.1693C12.5568 22.184 12.4753 22.1793 12.3984 22.1556C12.3214 22.132 12.2513 22.0901 12.194 22.0335C12.1189 22.2473 12.2402 22.4958 12.3991 22.7095C12.2691 22.7789 12.1738 22.7355 11.9687 22.6922C11.9889 22.9147 12.1189 23.1458 12.4425 23.3653C11.5036 23.1227 10.9287 23.7755 10.9287 24.4602C10.9287 24.9773 11.2898 25.3442 11.6451 25.3442C11.7607 25.3442 11.9282 25.298 12.0236 25.2258C12.09 25.3673 12.0553 25.558 11.986 25.6995C12.246 25.6331 12.4078 25.4771 12.2922 25.1564C12.4694 25.1492 12.6365 25.0724 12.7573 24.9427C12.7015 24.8731 12.6299 24.8178 12.5486 24.7811C12.4673 24.7445 12.3784 24.7276 12.2893 24.7318C12.4338 24.4313 12.272 24.2638 12.038 24.1309C12.038 24.1309 12.1882 24.7318 11.804 24.7318C11.6307 24.7318 11.4747 24.674 11.4747 24.4227C11.4747 24.2031 11.6682 23.8969 12.1131 23.9171C12.558 23.9344 12.9191 24.2233 12.9191 24.9369C12.9191 25.5927 12.3905 25.9162 11.6942 25.9393C11.0673 25.9567 10.5936 25.6158 10.5936 24.9687C10.5936 24.1049 11.8416 22.1404 11.8416 21.3691C11.8416 20.7913 11.3245 20.4678 10.816 20.4678C10.1573 20.4678 9.60268 21.1207 9.60268 21.1207L9.9869 21.606Z" fill="#FFCC4D"/>
<path d="M9.9869 21.606C9.9869 21.606 9.30223 21.0311 9.07112 21.3171C8.69556 21.7851 10.218 24.0933 10.218 24.908C10.218 26.2427 9.32534 26.6038 8.22756 26.7944C7.48801 26.9215 6.28912 26.7395 6.28912 26.7395C6.51445 26.4362 6.66179 26.3467 7.04312 26.3235C6.77964 26.1875 6.55958 25.9803 6.40792 25.7255C6.25626 25.4707 6.17907 25.1785 6.18512 24.882C6.18512 23.7322 6.6589 23.2584 6.6589 21.9642C6.6589 21.2449 6.06956 20.3291 6.06956 20.3291C7.10956 20.436 7.62956 21.398 7.3349 22.1693C7.41451 22.1835 7.49634 22.1786 7.57367 22.155C7.65101 22.1313 7.72165 22.0897 7.77979 22.0335C7.8549 22.2473 7.73645 22.4958 7.57468 22.7095C7.70179 22.7789 7.79712 22.7355 8.00512 22.6922C7.9849 22.9147 7.85201 23.1458 7.53134 23.3653C8.46734 23.1227 9.04223 23.7755 9.04223 24.4602C9.04223 24.9773 8.68112 25.3442 8.32579 25.3442C8.19098 25.3413 8.05977 25.3002 7.94734 25.2258C7.88379 25.3702 7.91845 25.558 7.9849 25.6995C7.72779 25.6331 7.56601 25.4771 7.68156 25.1593C7.59375 25.1562 7.50743 25.1357 7.4276 25.099C7.34776 25.0623 7.27599 25.0102 7.21645 24.9455C7.27143 24.8755 7.34229 24.8196 7.42318 24.7825C7.50406 24.7453 7.59263 24.7279 7.68156 24.7318C7.53712 24.4313 7.6989 24.2638 7.9329 24.1309C7.9329 24.1309 7.78268 24.7318 8.1669 24.7318C8.34023 24.7318 8.49623 24.674 8.49623 24.4227C8.49623 24.2031 8.30268 23.8969 7.85779 23.9171C7.41001 23.9344 7.0489 24.2233 7.0489 24.934C7.0489 25.5898 7.57756 25.9133 8.27379 25.9364C8.90356 25.9538 9.37734 25.6158 9.37734 24.9658C9.37734 24.102 8.12934 22.1375 8.12934 21.3662C8.12934 20.7884 8.64645 20.4649 9.1549 20.4649C9.81356 20.4649 10.3682 21.1178 10.3682 21.1178L9.9869 21.606ZM9.84245 37.206C9.84245 38.6475 11.1367 39.39 12.1536 39.39C13.5229 39.39 14.2538 38.5695 14.2538 37.4949C14.2538 36.8882 14.1411 36.5069 13.8609 35.9233L10.7207 29.4002C10.6076 29.128 10.5582 28.8335 10.5762 28.5393C10.5762 27.9558 11.1453 27.4762 11.7405 27.4618C12.2807 27.4502 12.8729 27.9673 12.8729 28.5595C12.8729 29.2789 12.5031 29.5967 12.1189 29.5967C11.648 29.5967 11.4602 29.4031 11.4602 29.0709C11.4602 28.8398 11.5729 28.7415 11.7318 28.7415C12.1362 28.7415 12.0236 29.2847 12.0236 29.2847C12.077 29.2734 12.1274 29.2505 12.1711 29.2178C12.2148 29.185 12.2509 29.1431 12.2767 29.0949C12.3026 29.0468 12.3176 28.9936 12.3208 28.939C12.324 28.8845 12.3152 28.8299 12.2951 28.7791C12.4461 28.7469 12.5823 28.6657 12.6822 28.548C12.576 28.4385 12.439 28.3639 12.2893 28.3342C12.3847 28.0222 12.2576 27.872 11.986 27.8055C12.0409 27.9269 12.0409 28.0367 12.0236 28.1407C11.5931 28.0193 10.9345 28.2129 10.9345 28.9553C10.9345 29.692 11.4458 30.3131 12.4078 30.16C12.1767 30.2698 12.064 30.4922 12.0409 30.7407C12.1591 30.6986 12.2826 30.6733 12.4078 30.6655C12.2951 30.862 12.1391 31.0324 12.1449 31.4224C12.324 31.3415 12.4887 31.1913 12.7169 31.2867C12.3587 31.9915 12.7978 32.9593 13.9187 33.1904C13.5391 32.775 13.3226 32.2363 13.3091 31.6738C13.3091 30.004 13.7771 29.7209 13.7771 28.5595C13.7691 28.2888 13.6975 28.0238 13.568 27.7859C13.4385 27.548 13.2548 27.3439 13.0318 27.1902V27.2104C13.1676 27.1814 13.296 27.1245 13.4089 27.0435C13.5217 26.9625 13.6166 26.859 13.6876 26.7395C12.9365 26.5315 11.8473 26.5344 11.2638 26.7655C11.0008 26.8031 10.7495 26.8991 10.5285 27.0466C10.3076 27.1941 10.1225 27.3893 9.9869 27.6178C9.84549 27.9422 9.77251 28.2923 9.77251 28.6462C9.77251 29.0001 9.84549 29.3502 9.9869 29.6747C10.4318 30.6049 12.5291 35.0509 13.182 36.4491C13.3241 36.7461 13.4 37.0704 13.4045 37.3995C13.4045 38.2575 12.6216 38.5551 12.1767 38.5551C11.6422 38.5551 11.0991 38.1478 11.0991 37.6422C11.0991 37.3215 11.2753 37.1251 11.5238 37.1251C12.1276 37.1251 12.09 37.6364 11.9687 37.96C12.3413 37.7924 12.5609 37.492 12.5002 37.1742C12.7362 37.14 12.9507 37.0183 13.1011 36.8333C12.9538 36.6484 12.7747 36.5069 12.5002 36.504C12.6216 36.0129 12.2922 35.802 11.9687 35.6864C12.0698 36.0475 12.1362 36.4664 11.5238 36.4664C11.076 36.4664 10.7236 36.5415 10.5185 36.8333C10.504 36.4462 10.4665 34.9093 10.4665 34.9093C10.4433 34.3344 11.2378 34.3518 11.7433 34.5222C11.5556 33.8635 11.1656 33.5053 10.2556 33.5949C10.3952 33.5407 10.5143 33.4441 10.5962 33.3187C10.678 33.1933 10.7185 33.0454 10.712 32.8958C10.712 32.3555 10.2729 31.7547 9.9869 31.5784L9.84245 37.206Z" fill="#FFCC4D"/>
</svg>
