<svg width="104" height="104" viewBox="0 0 104 104" fill="none" xmlns="http://www.w3.org/2000/svg">
<path d="M104 78C104 81.0647 102.783 84.0039 100.615 86.171C98.4484 88.3381 95.5092 89.5556 92.4444 89.5556H11.5556C8.49083 89.5556 5.55163 88.3381 3.38454 86.171C1.21746 84.0039 0 81.0647 0 78V26C0 22.9353 1.21746 19.9961 3.38454 17.829C5.55163 15.6619 8.49083 14.4444 11.5556 14.4444H92.4444C95.5092 14.4444 98.4484 15.6619 100.615 17.829C102.783 19.9961 104 22.9353 104 26V78Z" fill="#C60A1D"/>
<path d="M0 34.6667H104V69.3333H0V34.6667Z" fill="#FFC400"/>
<path d="M26 49.1111V57.7778C26 60.0763 26.9131 62.2807 28.5384 63.906C30.1637 65.5314 32.3681 66.4444 34.6667 66.4444C36.9652 66.4444 39.1696 65.5314 40.7949 63.906C42.4202 62.2807 43.3333 60.0763 43.3333 57.7778V49.1111H26Z" fill="#EA596E"/>
<path d="M34.6667 46.2222H43.3334V54.8889H34.6667V46.2222Z" fill="#F4A2B2"/>
<path d="M26 46.2222H34.6667V54.8889H26V46.2222Z" fill="#DD2E44"/>
<path d="M34.6667 46.2222C39.4531 46.2222 43.3333 44.2821 43.3333 41.8889C43.3333 39.4957 39.4531 37.5556 34.6667 37.5556C29.8802 37.5556 26 39.4957 26 41.8889C26 44.2821 29.8802 46.2222 34.6667 46.2222Z" fill="#EA596E"/>
<path d="M34.6667 41.8889C39.4531 41.8889 43.3333 40.9188 43.3333 39.7222C43.3333 38.5256 39.4531 37.5556 34.6667 37.5556C29.8802 37.5556 26 38.5256 26 39.7222C26 40.9188 29.8802 41.8889 34.6667 41.8889Z" fill="#FFAC33"/>
<path d="M20.2222 46.2222H23.1111V66.4444H20.2222V46.2222ZM46.2222 46.2222H49.1111V66.4444H46.2222V46.2222Z" fill="#99AAB5"/>
<path d="M17.3333 63.5556H26V66.4444H17.3333V63.5556ZM43.3333 63.5556H52V66.4444H43.3333V63.5556ZM20.2222 43.3333H23.1111V46.2222H20.2222V43.3333ZM46.2222 43.3333H49.1111V46.2222H46.2222V43.3333Z" fill="#66757F"/>
</svg>
