<svg width="51" height="50" viewBox="0 0 51 50" fill="none" xmlns="http://www.w3.org/2000/svg">
<path d="M25.5 0C11.7 0 0.5 11.2 0.5 25C0.5 38.8 11.7 50 25.5 50C39.3 50 50.5 38.8 50.5 25C50.5 11.2 39.3 0 25.5 0ZM37.1 17C36.725 20.95 35.1 30.55 34.275 34.975C33.925 36.85 33.225 37.475 32.575 37.55C31.125 37.675 30.025 36.6 28.625 35.675C26.425 34.225 25.175 33.325 23.05 31.925C20.575 30.3 22.175 29.4 23.6 27.95C23.975 27.575 30.375 21.75 30.5 21.225C30.5174 21.1455 30.5151 21.0629 30.4933 20.9845C30.4715 20.9061 30.4309 20.8342 30.375 20.775C30.225 20.65 30.025 20.7 29.85 20.725C29.625 20.775 26.125 23.1 19.3 27.7C18.3 28.375 17.4 28.725 16.6 28.7C15.7 28.675 14 28.2 12.725 27.775C11.15 27.275 9.925 27 10.025 26.125C10.075 25.675 10.7 25.225 11.875 24.75C19.175 21.575 24.025 19.475 26.45 18.475C33.4 15.575 34.825 15.075 35.775 15.075C35.975 15.075 36.45 15.125 36.75 15.375C37 15.575 37.075 15.85 37.1 16.05C37.075 16.2 37.125 16.65 37.1 17Z" fill="white"/>
</svg>
