<svg width="104" height="76" viewBox="0 0 104 76" fill="none" xmlns="http://www.w3.org/2000/svg">
<path d="M0 12.1705V23.5556H16.2587L0 12.1705ZM13.4738 75.5556H37.5556V58.6931L13.4738 75.5556ZM66.4444 58.696V75.5556H90.5233L66.4444 58.696ZM0 52.4445V63.8296L16.2644 52.4445H0ZM90.5291 0.444458H66.4444V17.3069L90.5291 0.444458ZM104 63.8325V52.4445H87.7327L104 63.8325ZM104 23.5556V12.1705L87.7384 23.5556H104ZM37.5556 0.444458H13.4738L37.5556 17.3069V0.444458Z" fill="#00247D"/>
<path d="M72.6267 52.4445L100.684 72.0918C102.054 70.6802 103.039 68.9404 103.544 67.0391L82.7002 52.4445H72.6267ZM37.5556 52.4445H31.3704L3.31644 72.0889C4.82155 73.62 6.75133 74.7149 8.91511 75.2233L37.5556 55.1687V52.4445ZM66.4444 23.5556H72.6296L100.684 3.91112C99.1526 2.35769 97.2121 1.27075 95.0878 0.776672L66.4444 20.8313V23.5556ZM31.3704 23.5556L3.31644 3.91112C1.94697 5.32371 0.961461 7.06302 0.453552 8.96378L21.2969 23.5556H31.3704Z" fill="#CF1B2B"/>
<path d="M104 46.6667H60.6667V75.5556H66.4444V58.696L90.5233 75.5556H92.4444C93.9792 75.5558 95.4986 75.2495 96.9134 74.6547C98.3282 74.0599 99.61 73.1886 100.684 72.0918L72.6267 52.4445H82.7002L103.544 67.0391C103.812 66.0656 104 65.0574 104 64V63.8325L87.7327 52.4445H104V46.6667ZM0 46.6667V52.4445H16.2644L0 63.8296V64C0 67.1518 1.26822 70.0031 3.31644 72.0889L31.3704 52.4445H37.5556V55.1687L8.91511 75.2205C9.76444 75.4227 10.6427 75.5556 11.5556 75.5556H13.4738L37.5556 58.6931V75.5556H43.3333V46.6667H0ZM104 12C104.002 8.97241 102.81 6.0661 100.684 3.91113L72.6296 23.5556H66.4444V20.8314L95.0878 0.776681C94.2224 0.564426 93.3354 0.452946 92.4444 0.444459H90.5291L66.4444 17.3069V0.444459H60.6667V29.3333H104V23.5556H87.7384L104 12.1705V12ZM37.5556 0.444459V17.3069L13.4738 0.444459H11.5556C10.0205 0.44379 8.50074 0.750141 7.0858 1.34549C5.67086 1.94084 4.38927 2.81316 3.31644 3.91113L31.3704 23.5556H21.2969L0.453556 8.96379C0.166921 9.95095 0.0143676 10.9722 0 12L0 12.1705L16.2587 23.5556H0V29.3333H43.3333V0.444459H37.5556Z" fill="#EEEEEE"/>
<path d="M60.6667 29.3333V0.444458H43.3333V29.3333H0V46.6667H43.3333V75.5556H60.6667V46.6667H104V29.3333H60.6667Z" fill="#CF1B2B"/>
</svg>
