<svg width="50" height="50" viewBox="0 0 50 50" fill="none" xmlns="http://www.w3.org/2000/svg">
<path d="M25 0C21.717 0 18.4661 0.646644 15.4329 1.90301C12.3998 3.15938 9.6438 5.00087 7.32233 7.32233C2.63392 12.0107 0 18.3696 0 25C0 31.6304 2.63392 37.9893 7.32233 42.6777C9.6438 44.9991 12.3998 46.8406 15.4329 48.097C18.4661 49.3534 21.717 50 25 50C31.6304 50 37.9893 47.3661 42.6777 42.6777C47.3661 37.9893 50 31.6304 50 25C50 21.717 49.3534 18.4661 48.097 15.4329C46.8406 12.3998 44.9991 9.6438 42.6777 7.32233C40.3562 5.00087 37.6002 3.15938 34.5671 1.90301C31.5339 0.646644 28.283 0 25 0ZM8.75 16.25H12.5C13.4 16.25 13.75 16.65 14.1 17.675C15.9 22.925 18.925 27.5 20.175 27.5C20.65 27.5 20.875 27.3 20.875 26.125V20.7C20.725 18.2 19.4 17.975 19.4 17.1C19.4 16.675 19.75 16.25 20.35 16.25H26.125C26.925 16.25 27.175 16.675 27.175 17.6V24.9C27.175 25.675 27.5 25.95 27.75 25.95C28.225 25.95 28.625 25.675 29.475 24.825C32.125 21.85 34 17.3 34 17.3C34.25 16.75 34.675 16.25 35.6 16.25H39.275C40.4 16.25 40.65 16.825 40.4 17.6C39.925 19.75 35.45 26.075 35.45 26.075C35 26.7 34.9 27 35.45 27.725C35.825 28.25 37.125 29.35 37.975 30.375C39.575 32.15 40.75 33.65 41.1 34.675C41.4 35.725 40.875 36.25 39.825 36.25H36.125C34.725 36.25 34.325 35.125 31.825 32.625C29.625 30.525 28.75 30.25 28.15 30.25C27.4 30.25 27.175 30.45 27.175 31.525V34.825C27.175 35.725 26.9 36.25 24.55 36.25C20.65 36.25 16.35 33.875 13.325 29.5C8.75 23.1 7.5 18.275 7.5 17.3C7.5 16.75 7.7 16.25 8.75 16.25Z" fill="white"/>
</svg>
