<svg width="331" height="241" viewBox="0 0 331 241" fill="none" xmlns="http://www.w3.org/2000/svg">
<path d="M198.186 64.8584L198.19 64.8669L198.195 64.8752C207.658 81.1912 213.673 99.2748 215.869 118.008C217.357 135.276 212.923 147.276 203.922 152.27C202.807 152.849 201.635 153.313 200.425 153.653L199.934 153.791L199.776 154.277C199.165 156.159 197.939 157.782 196.295 158.883C194.65 159.984 192.683 160.5 190.71 160.349C188.737 160.197 186.872 159.386 185.415 158.046C183.959 156.706 182.995 154.915 182.68 152.961L182.594 152.433L182.099 152.23C177.229 150.239 172.646 147.608 168.47 144.406C162.776 139.925 157.544 134.887 152.853 129.365L152.449 128.889L151.851 129.069C144.914 131.162 137.787 132.567 130.574 133.263L130.567 133.264L130.56 133.265C123.924 134.008 117.209 133.553 110.734 131.922L110.727 131.92L110.719 131.918C107.725 131.215 104.903 129.919 102.419 128.105C99.9388 126.294 97.8468 124.003 96.2671 121.369C91.2468 112.529 93.8892 99.845 104.319 85.9832C108.692 80.223 113.635 74.9184 119.072 70.15L119.535 69.7436L119.355 69.1543C118.476 66.2795 117.768 63.4071 117.181 60.5644L117.076 60.057L116.593 59.8689C115.134 59.3 113.854 58.3488 112.888 57.1152C111.922 55.8816 111.306 54.4108 111.103 52.8571C110.901 51.3034 111.121 49.724 111.739 48.2842C112.357 46.8445 113.351 45.5976 114.617 44.6741L115.024 44.3772L115.008 43.8737C114.528 28.7542 118.849 18.2224 127.122 13.6063L127.122 13.6063L127.129 13.6025C135.967 8.57638 148.599 11.2424 162.52 21.6465C168.255 26.1137 173.534 31.1363 178.282 36.6412L178.687 37.1113L179.281 36.9307C186.2 34.826 193.312 33.4176 200.511 32.7263C202.236 32.5748 203.839 32.5592 205.482 32.5435L206.056 32.5381L206.319 32.0283C207.165 30.3933 208.504 29.0656 210.146 28.2331C211.788 27.4007 213.65 27.1055 215.469 27.3894C217.288 27.6732 218.971 28.5218 220.281 29.8151C221.591 31.1083 222.462 32.7807 222.769 34.5958L222.863 35.1499L223.393 35.3361C228.179 37.0159 232.217 40.3315 234.797 44.698C239.809 53.5804 237.176 66.2271 226.733 80.1305L226.728 80.1381L226.722 80.1459C226.05 81.0791 225.313 81.9844 224.543 82.9188C223.814 80.3668 222.968 77.8541 222.018 75.3434C225.933 69.9839 228.586 64.8409 229.843 60.2091C231.132 55.4594 230.973 51.1595 229.08 47.7429L229.068 47.7217L229.055 47.7011C227.336 44.9392 224.766 42.8103 221.733 41.6346L221.118 41.3962L220.678 41.8879C219.702 42.9787 218.467 43.8068 217.088 44.2961C215.708 44.7853 214.228 44.9201 212.783 44.6878C211.337 44.4556 209.974 43.8639 208.817 42.9671C207.66 42.0703 206.747 40.8972 206.162 39.5554L205.909 38.9757L205.276 38.9833L205.264 38.9834C203.941 38.9993 202.583 39.0155 201.103 39.1331L201.096 39.1337L201.089 39.1344C195.551 39.6596 190.068 40.6549 184.7 42.1094L183.319 42.4834L184.195 43.6136C189.397 50.3255 194.075 57.4281 198.186 64.8584ZM129.935 126.75L129.948 126.749L129.961 126.748C147.725 124.719 164.887 119.084 180.397 110.188C188.516 105.667 196.221 100.438 203.423 94.5631L203.935 94.1454L203.723 93.5193C200.748 84.711 196.986 76.1883 192.484 68.054C188.026 59.9596 182.865 52.2728 177.061 45.0823L176.644 44.5651L176.014 44.7779C167.206 47.7549 158.683 51.5167 150.548 56.018L150.548 56.0183C147.813 57.5333 145.199 59.1142 142.625 60.7349C142.049 58.5048 141.563 56.2521 141.17 53.9824C143.241 52.7145 145.339 51.4662 147.447 50.2979L147.448 50.2977C154.873 46.1781 162.605 42.6366 170.575 39.7047L171.917 39.211L170.945 38.162C167.166 34.0835 163.047 30.3336 158.633 26.953C154.043 23.3384 148.849 20.5668 143.291 18.7668C141.209 18.0105 138.998 17.6742 136.785 17.7776C134.567 17.8813 132.391 18.4248 130.385 19.3766L130.357 19.3895L130.331 19.404C127.314 21.0754 125.096 24.0516 123.654 27.9574C122.213 31.8616 121.523 36.7518 121.59 42.3727L121.598 43.0859L122.285 43.279C123.947 43.7466 125.434 44.6939 126.561 46.0025C127.687 47.311 128.402 48.9227 128.617 50.6358C128.832 52.3489 128.537 54.0874 127.769 55.6336C127.001 57.1798 125.794 58.4652 124.299 59.3288L123.682 59.6852L123.849 60.3779C127.012 73.4902 131.984 86.0986 138.622 97.8406C139.881 100.358 141.293 102.568 142.683 104.742C142.828 104.968 142.972 105.194 143.116 105.42C140.806 106.069 138.555 106.617 136.361 107.063C135.161 105.101 133.981 103.075 132.845 101.025C128.738 93.6041 125.193 85.8861 122.239 77.9356L121.742 76.5967L120.696 77.5696C116.628 81.3543 112.891 85.4791 109.524 89.8991L109.521 89.9027C105.336 95.4524 102.521 100.774 101.204 105.56C99.8884 110.344 100.051 114.676 101.949 118.138C103.852 121.606 107.476 124.049 112.252 125.477C117.032 126.905 123.056 127.347 129.935 126.75ZM200.664 146.494L200.706 146.476L200.746 146.455C204.212 144.571 206.624 140.979 208.03 136.219C209.437 131.456 209.868 125.431 209.31 118.502L209.31 118.502L209.309 118.489C208.783 112.951 207.788 107.469 206.334 102.1L205.959 100.719L204.829 101.596C198.129 106.795 191.03 111.459 183.599 115.544L183.595 115.545C176.17 119.665 168.438 123.206 160.468 126.138L159.131 126.63L160.096 127.679C163.864 131.773 167.987 135.526 172.416 138.895C175.973 141.622 179.853 143.899 183.968 145.674L184.591 145.943L185.049 145.442C185.939 144.47 187.039 143.713 188.265 143.228C189.491 142.744 190.811 142.544 192.125 142.645C193.439 142.746 194.714 143.145 195.851 143.81C196.989 144.476 197.96 145.392 198.692 146.489L199.131 147.147L199.859 146.837L200.664 146.494Z" stroke="#0A1D64" stroke-width="1.90675"/>
<path d="M184.495 68.2939L181.87 67.1489V85.6126L186.631 73.6306C187.434 71.545 186.513 69.1527 184.495 68.2939ZM146.291 75.8593L156.008 100.294C156.294 101.037 156.783 101.677 157.413 102.135C158.043 102.592 158.787 102.848 159.555 102.87C160.064 102.87 160.593 102.768 161.102 102.543L175.542 96.3065C177.011 95.6726 177.912 94.1595 177.952 92.6464C177.971 92.1148 177.873 91.5218 177.697 90.9902L167.901 66.5559C167.624 65.8076 167.137 65.1636 166.505 64.7077C165.873 64.2519 165.123 64.0053 164.355 64C163.845 64 163.336 64.1227 162.846 64.3067L148.426 70.5431C147.468 70.9527 146.704 71.7429 146.304 72.7398C145.903 73.7367 145.899 74.8588 146.291 75.8593ZM177.932 68.0894C177.932 67.0048 177.519 65.9647 176.784 65.1978C176.049 64.4308 175.053 64 174.014 64H171.173L177.932 81.0529" fill="#E50000"/>
<path d="M10.4311 217H4.66071V178.161H36.0095V183.598H10.4311V194.862H33.2353V200.299H10.4311V217ZM42.6308 217V175.387H48.0683V217H42.6308ZM66.2725 217.444C62.4255 217.444 59.6143 216.76 57.8388 215.391C56.0633 214.022 55.1755 211.821 55.1755 208.788C55.1755 205.644 56.1558 203.406 58.1162 202.075C60.1137 200.706 63.3133 200.022 67.7151 200.022H77.5358C77.5358 197.395 76.87 195.49 75.5384 194.307C74.2068 193.086 72.0798 192.476 69.1577 192.476C66.8273 192.476 65.0333 192.864 63.7756 193.641C62.518 194.381 61.6672 195.583 61.2234 197.247H55.8414C56.3592 193.918 57.6908 191.496 59.8362 189.979C61.9816 188.462 65.1628 187.704 69.3796 187.704C74.1143 187.704 77.5543 188.684 79.6997 190.645C81.8821 192.568 82.9733 195.657 82.9733 199.911V217H77.5358V213.283C75.3534 216.057 71.599 217.444 66.2725 217.444ZM60.613 208.566C60.613 210.009 61.1679 211.063 62.2776 211.729C63.4242 212.358 65.1813 212.672 67.5486 212.672C70.6927 212.672 73.0416 212.099 74.5951 210.952C76.1857 209.805 77.1659 207.975 77.5358 205.459V204.128H69.1022C63.4427 204.128 60.613 205.607 60.613 208.566ZM89.5179 208.233H94.8999C95.3808 209.787 96.3055 210.915 97.6741 211.618C99.0428 212.321 100.985 212.672 103.5 212.672C108.42 212.672 110.879 211.489 110.879 209.121C110.879 208.048 110.214 207.198 108.882 206.569C107.55 205.94 105.405 205.404 102.446 204.96C97.8961 204.368 94.678 203.406 92.7915 202.075C90.942 200.706 90.0173 198.709 90.0173 196.082C90.0173 193.271 90.9975 191.181 92.9579 189.813C94.9184 188.407 98.007 187.704 102.224 187.704C106.441 187.704 109.622 188.444 111.767 189.924C113.913 191.366 115.244 193.696 115.762 196.915H110.38C109.899 195.361 109.011 194.233 107.717 193.53C106.422 192.827 104.554 192.476 102.113 192.476C97.5632 192.476 95.2883 193.604 95.2883 195.86C95.2883 196.896 95.9356 197.728 97.2303 198.357C98.5249 198.949 100.578 199.467 103.389 199.911C108.161 200.651 111.471 201.649 113.321 202.907C115.207 204.165 116.151 206.088 116.151 208.677C116.151 214.522 111.878 217.444 103.334 217.444C99.0797 217.444 95.8431 216.704 93.6238 215.224C91.4044 213.745 90.0358 211.415 89.5179 208.233ZM122.823 175.387H128.261V192.032C130.258 189.147 133.754 187.704 138.747 187.704C142.927 187.704 145.979 188.721 147.902 190.756C149.826 192.79 150.788 196.027 150.788 200.466V217H145.406V200.466C145.406 197.802 144.74 195.86 143.408 194.64C142.077 193.419 140.005 192.809 137.194 192.809C134.05 192.809 131.775 193.585 130.369 195.139C128.964 196.656 128.261 199.134 128.261 202.574V217H122.823V175.387Z" fill="#0A1D64"/>
<path d="M157.301 205.959H163.238C163.867 208.067 165.143 209.602 167.066 210.564C169.027 211.526 171.801 212.006 175.389 212.006C182.454 212.006 185.987 210.175 185.987 206.513C185.987 204.849 185.08 203.517 183.268 202.519C181.455 201.52 178.311 200.669 173.835 199.966C167.769 198.931 163.589 197.617 161.296 196.027C159.003 194.399 157.856 191.976 157.856 188.758C157.856 181.434 163.219 177.772 173.946 177.772C179.199 177.772 183.175 178.679 185.876 180.491C188.576 182.267 190.259 185.189 190.925 189.258H184.932C184.377 187.112 183.194 185.559 181.381 184.597C179.569 183.635 176.961 183.154 173.558 183.154C166.863 183.154 163.515 184.911 163.515 188.425C163.515 190.016 164.329 191.255 165.957 192.143C167.621 192.994 170.599 193.77 174.89 194.473C181.252 195.62 185.635 197.026 188.039 198.69C190.444 200.355 191.646 202.833 191.646 206.125C191.646 213.671 186.024 217.444 174.779 217.444C169.378 217.444 165.291 216.538 162.517 214.725C159.742 212.913 158.004 209.99 157.301 205.959ZM198.248 230.871V188.148H203.685V192.198C205.72 189.202 209.308 187.704 214.449 187.704C219.073 187.704 222.421 188.888 224.492 191.255C226.6 193.585 227.655 197.358 227.655 202.574C227.655 207.753 226.6 211.526 224.492 213.893C222.421 216.26 219.073 217.444 214.449 217.444C209.308 217.444 205.72 215.946 203.685 212.95V230.871H198.248ZM205.96 210.064C207.44 211.581 209.789 212.339 213.007 212.339C216.225 212.339 218.555 211.581 219.998 210.064C221.477 208.511 222.217 206.014 222.217 202.574C222.217 199.171 221.477 196.693 219.998 195.139C218.555 193.585 216.225 192.809 213.007 192.809C209.789 192.809 207.44 193.585 205.96 195.139C204.518 196.693 203.796 199.171 203.796 202.574C203.796 206.014 204.518 208.511 205.96 210.064ZM236.221 213.893C233.928 211.526 232.781 207.753 232.781 202.574C232.781 197.395 233.928 193.622 236.221 191.255C238.551 188.888 242.306 187.704 247.484 187.704C252.626 187.704 256.325 188.888 258.581 191.255C260.875 193.622 262.021 197.395 262.021 202.574C262.021 202.759 262.003 203.036 261.966 203.406C261.966 203.776 261.966 204.054 261.966 204.239H238.329C238.514 207.124 239.347 209.251 240.826 210.619C242.343 211.988 244.581 212.672 247.54 212.672C251.868 212.672 254.623 211.193 255.807 208.233H261.466C260.69 211.636 259.099 214.022 256.695 215.391C254.327 216.76 251.257 217.444 247.484 217.444C242.306 217.444 238.551 216.26 236.221 213.893ZM247.54 192.476C244.766 192.476 242.62 193.086 241.104 194.307C239.624 195.49 238.736 197.432 238.44 200.133H256.584C256.288 197.395 255.4 195.435 253.921 194.251C252.478 193.068 250.351 192.476 247.54 192.476ZM278.674 217.444C274.828 217.444 272.016 216.76 270.241 215.391C268.465 214.022 267.578 211.821 267.578 208.788C267.578 205.644 268.558 203.406 270.518 202.075C272.516 200.706 275.715 200.022 280.117 200.022H289.938C289.938 197.395 289.272 195.49 287.94 194.307C286.609 193.086 284.482 192.476 281.56 192.476C279.229 192.476 277.435 192.864 276.178 193.641C274.92 194.381 274.069 195.583 273.625 197.247H268.243C268.761 193.918 270.093 191.496 272.238 189.979C274.384 188.462 277.565 187.704 281.782 187.704C286.516 187.704 289.956 188.684 292.102 190.645C294.284 192.568 295.375 195.657 295.375 199.911V217H289.938V213.283C287.755 216.057 284.001 217.444 278.674 217.444ZM273.015 208.566C273.015 210.009 273.57 211.063 274.68 211.729C275.826 212.358 277.583 212.672 279.951 212.672C283.095 212.672 285.444 212.099 286.997 210.952C288.588 209.805 289.568 207.975 289.938 205.459V204.128H281.504C275.845 204.128 273.015 205.607 273.015 208.566ZM308.911 217H303.473V175.387H308.911V199.744H312.351L321.728 188.148H328.275L316.901 202.241L329.329 217H322.616L312.406 204.849H308.911V217Z" fill="#E50000"/>
</svg>
