<svg width="104" height="104" viewBox="0 0 104 104" fill="none" xmlns="http://www.w3.org/2000/svg">
<g clip-path="url(#clip0_18_119)">
<path d="M0 26.1705V37.5556H16.2587L0 26.1705ZM13.4738 89.5556H37.5556V72.6931L13.4738 89.5556ZM66.4444 72.696V89.5556H90.5233L66.4444 72.696ZM0 66.4445V77.8296L16.2644 66.4445H0ZM90.5291 14.4445H66.4444V31.3069L90.5291 14.4445ZM104 77.8325V66.4445H87.7327L104 77.8325ZM104 37.5556V26.1705L87.7384 37.5556H104ZM37.5556 14.4445H13.4738L37.5556 31.3069V14.4445Z" fill="#00247D"/>
<path d="M72.6267 66.4445L100.684 86.0918C102.054 84.6802 103.039 82.9404 103.544 81.0391L82.7002 66.4445H72.6267ZM37.5556 66.4445H31.3704L3.31644 86.0889C4.82155 87.62 6.75133 88.7149 8.91511 89.2233L37.5556 69.1687V66.4445ZM66.4444 37.5556H72.6296L100.684 17.9111C99.1526 16.3577 97.2121 15.2707 95.0878 14.7767L66.4444 34.8313V37.5556ZM31.3704 37.5556L3.31644 17.9111C1.94697 19.3237 0.961461 21.063 0.453552 22.9638L21.2969 37.5556H31.3704Z" fill="#CF1B2B"/>
<path d="M104 60.6667H60.6667V89.5556H66.4444V72.696L90.5233 89.5556H92.4444C93.9792 89.5558 95.4986 89.2495 96.9134 88.6547C98.3282 88.0599 99.61 87.1886 100.684 86.0918L72.6267 66.4445H82.7002L103.544 81.0391C103.812 80.0656 104 79.0574 104 78V77.8325L87.7327 66.4445H104V60.6667ZM0 60.6667V66.4445H16.2644L0 77.8296V78C0 81.1518 1.26822 84.0031 3.31644 86.0889L31.3704 66.4445H37.5556V69.1687L8.91511 89.2205C9.76444 89.4227 10.6427 89.5556 11.5556 89.5556H13.4738L37.5556 72.6931V89.5556H43.3333V60.6667H0ZM104 26C104.002 22.9724 102.81 20.0661 100.684 17.9111L72.6296 37.5556H66.4444V34.8314L95.0878 14.7767C94.2224 14.5644 93.3354 14.4529 92.4444 14.4445H90.5291L66.4444 31.3069V14.4445H60.6667V43.3333H104V37.5556H87.7384L104 26.1705V26ZM37.5556 14.4445V31.3069L13.4738 14.4445H11.5556C10.0205 14.4438 8.50074 14.7501 7.0858 15.3455C5.67086 15.9408 4.38927 16.8132 3.31644 17.9111L31.3704 37.5556H21.2969L0.453556 22.9638C0.166921 23.951 0.0143676 24.9722 0 26L0 26.1705L16.2587 37.5556H0V43.3333H43.3333V14.4445H37.5556Z" fill="#EEEEEE"/>
<path d="M60.6667 43.3333V14.4445H43.3333V43.3333H0V60.6667H43.3333V89.5556H60.6667V60.6667H104V43.3333H60.6667Z" fill="#CF1B2B"/>
</g>
<defs>
<clipPath id="clip0_18_119">
<rect width="104" height="104" fill="white"/>
</clipPath>
</defs>
</svg>
